<svg version="1.0" xmlns="http://www.w3.org/2000/svg" viewBox="0 0 3000.000000 2435.000000">

<g transform="translate(0.000000,2435.000000) scale(0.100000,-0.100000)">
<path d="M14565 20920 c-564 -32 -1130 -116 -1659 -246 -2895 -714 -5236
-2860 -6191 -5674 -831 -2452 -540 -5140 797 -7347 581 -960 1359 -1817 2262
-2490 1101 -821 2372 -1369 3716 -1602 2233 -388 4513 95 6383 1351 817 549
1548 1245 2142 2038 870 1164 1438 2532 1644 3965 66 460 85 742 85 1260 0
517 -18 793 -85 1259 -212 1480 -818 2911 -1733 4091 -980 1263 -2246 2218
-3716 2800 -811 321 -1657 513 -2580 585 -184 15 -868 21 -1065 10z m520
-1061 c11 -5 107 -160 214 -344 107 -184 195 -335 196 -335 1 0 0 146 -3 325
-4 252 -2 328 8 340 18 22 292 22 310 0 10 -12 10 -136 0 -633 -7 -339 -17
-625 -22 -634 -8 -16 -25 -18 -131 -18 -179 0 -214 15 -264 115 -21 42 -170
301 -327 570 l-41 70 -5 -363 c-4 -289 -8 -364 -18 -371 -21 -13 -289 -8 -303
6 -8 8 -8 157 0 595 13 652 15 685 38 690 37 7 330 -3 348 -13z m-667 -27 c15
-15 22 -85 55 -547 21 -292 43 -564 48 -605 10 -86 6 -108 -25 -120 -37 -14
-308 -23 -338 -11 -39 15 -45 49 -63 346 -9 143 -27 400 -40 572 -14 172 -22
319 -19 328 11 27 40 35 131 36 48 1 115 5 148 9 33 4 66 8 73 9 6 0 20 -7 30
-17z m2064 -102 c101 -22 223 -50 271 -61 316 -76 478 -286 479 -624 2 -262
-126 -486 -339 -592 -157 -79 -279 -82 -553 -15 -92 22 -203 48 -248 56 -95
18 -118 28 -127 56 -3 10 14 104 39 207 25 103 86 368 136 587 50 220 95 405
101 413 17 19 40 17 241 -27z m1347 -412 c79 -30 147 -61 151 -69 5 -8 -14
-70 -46 -154 -30 -77 -129 -336 -220 -575 -91 -239 -171 -441 -176 -447 -18
-22 -50 -15 -204 43 -162 61 -174 67 -174 95 0 11 69 198 154 417 84 218 180
467 212 552 74 198 77 203 123 197 20 -3 101 -29 180 -59z m-5015 -294 c69
-33 148 -115 181 -186 37 -80 35 -191 -4 -275 -37 -78 -105 -147 -179 -181
-48 -23 -70 -27 -142 -27 -73 1 -93 5 -143 30 -68 34 -150 116 -180 182 -17
38 -22 66 -22 138 0 79 4 96 28 143 97 184 293 259 461 176z m5953 -175 c90
-51 166 -95 169 -100 2 -4 -27 -160 -65 -346 -163 -789 -192 -929 -197 -945
-3 -11 -15 -18 -28 -18 -27 0 -257 130 -299 169 -26 23 -28 31 -24 71 3 25 11
71 18 102 21 91 13 103 -119 171 -62 32 -127 59 -143 59 -23 1 -44 -13 -103
-70 -55 -54 -81 -72 -101 -72 -15 0 -59 20 -99 44 -39 24 -92 54 -118 66 -31
14 -48 29 -48 40 0 9 82 95 183 191 617 590 767 729 788 729 12 0 95 -41 186
-91z m-7432 -334 c55 -41 100 -82 100 -91 0 -9 -28 -33 -65 -54 -93 -55 -103
-65 -89 -92 7 -12 134 -180 283 -372 150 -193 285 -368 300 -389 38 -50 28
-60 -91 -86 -109 -25 -183 -27 -221 -7 -36 19 -102 89 -202 216 -46 58 -87
109 -92 115 -25 28 -58 -84 -58 -196 0 -57 0 -58 -36 -69 -43 -14 -205 -4
-216 14 -4 6 -8 30 -8 54 0 35 -4 44 -22 51 -30 11 -104 -4 -138 -29 -30 -21
-60 -84 -60 -126 0 -68 89 -167 186 -204 48 -19 79 -24 169 -24 61 -1 125 2
142 6 28 6 35 4 48 -16 17 -25 25 -142 12 -164 -12 -19 -375 -16 -475 3 -162
33 -276 114 -339 243 -25 51 -28 67 -28 162 0 95 3 110 28 158 76 144 232 218
446 210 l74 -3 21 34 c39 66 22 231 -25 246 -20 7 -120 -60 -364 -244 -245
-185 -657 -539 -672 -577 -8 -21 12 -39 59 -53 96 -29 189 -106 236 -196 25
-46 27 -59 26 -163 l-1 -112 26 -8 c14 -4 78 -7 141 -7 94 1 133 6 211 28 53
15 110 27 126 27 63 0 134 -78 104 -113 -14 -18 -177 -86 -302 -127 -371 -120
-638 -115 -758 15 -49 53 -66 109 -51 164 12 47 64 96 112 106 45 10 58 22 58
57 0 66 -63 141 -139 167 -47 15 -58 6 -188 -145 l-108 -125 -87 6 c-94 7
-194 27 -210 43 -8 8 52 81 296 361 l21 24 -90 -7 c-142 -10 -302 -40 -326
-62 -12 -10 -41 -49 -65 -86 -58 -89 -82 -105 -137 -88 -80 24 -165 67 -171
88 -12 37 86 204 160 272 91 83 96 84 463 87 212 2 337 7 359 14 22 7 82 56
156 127 329 312 746 638 1136 886 85 54 164 104 175 112 36 24 59 15 160 -61z
m8309 -263 c50 -43 107 -89 125 -103 18 -13 37 -34 41 -45 6 -14 -13 -156 -54
-403 -34 -209 -59 -381 -56 -381 11 0 34 30 91 115 30 44 112 151 183 238 145
176 157 183 212 126 16 -17 59 -56 97 -86 92 -74 91 -81 -25 -220 -620 -740
-701 -833 -720 -833 -18 0 -87 56 -199 161 -35 33 -39 41 -39 88 0 54 66 501
100 681 11 58 20 109 20 114 0 5 -30 -29 -67 -76 -177 -220 -396 -468 -413
-468 -10 0 -40 19 -66 43 -27 23 -75 64 -107 91 -45 37 -58 54 -55 70 7 35
797 966 820 966 10 0 61 -35 112 -78z m-4644 -164 c48 -156 38 -148 180 -148
97 0 120 -3 120 -14 0 -8 -41 -47 -91 -86 -49 -39 -93 -78 -96 -86 -3 -9 8
-59 25 -112 47 -148 46 -143 25 -135 -25 9 -90 50 -142 90 -24 18 -53 33 -64
33 -11 0 -65 -35 -120 -77 l-100 -77 6 50 c3 27 17 77 31 111 30 73 33 117 9
139 -10 8 -55 42 -101 74 -59 42 -78 60 -66 64 8 3 62 6 118 6 66 0 108 4 119
13 9 6 28 50 43 97 24 79 59 160 68 160 3 0 19 -46 36 -102z m-2037 -284 c18
-20 47 -58 65 -83 58 -81 75 -86 187 -46 69 24 125 32 125 18 0 -5 -27 -51
-60 -103 -33 -52 -60 -101 -60 -110 0 -9 27 -50 59 -91 64 -80 87 -116 79
-124 -6 -7 -127 20 -190 42 -59 21 -59 20 -139 -109 -42 -68 -65 -96 -72 -89
-6 6 -12 59 -14 118 -2 59 -6 117 -8 129 -5 25 -32 38 -111 54 -51 11 -134 44
-134 54 0 2 47 20 105 41 57 20 110 44 116 52 9 10 12 54 10 149 -1 74 0 134
4 134 3 0 20 -16 38 -36z m4045 -236 c7 -9 60 -33 119 -53 106 -38 106 -38 84
-57 -13 -10 -67 -31 -122 -48 -65 -20 -102 -37 -109 -50 -5 -10 -10 -69 -10
-130 0 -139 -6 -140 -98 -15 -45 61 -75 91 -90 93 -13 2 -52 -8 -87 -22 -85
-34 -145 -44 -145 -24 0 18 48 87 101 145 54 59 52 84 -16 168 -40 49 -79 125
-65 125 6 0 56 -18 111 -40 56 -22 107 -40 115 -40 7 0 39 33 70 73 31 39 71
87 88 105 l31 33 5 -124 c3 -79 10 -130 18 -139z m-1707 -368 c1045 -81 2038
-486 2859 -1168 158 -132 493 -469 623 -629 866 -1060 1265 -2426 1096 -3753
-165 -1300 -770 -2402 -1784 -3245 -562 -467 -1229 -803 -1949 -980 -189 -46
-436 -95 -448 -88 -4 2 -5 10 -2 18 7 17 641 473 699 503 22 11 94 39 160 62
390 137 795 358 1165 636 921 692 1546 1692 1764 2819 105 546 113 1060 26
1605 -132 818 -507 1625 -1054 2265 -172 200 -466 480 -681 647 -1200 933
-2802 1212 -4250 741 -694 -226 -1292 -592 -1821 -1118 -252 -251 -444 -484
-626 -765 -332 -509 -572 -1119 -672 -1710 -179 -1053 -13 -2060 494 -3001 50
-91 90 -177 90 -191 0 -14 -13 -43 -29 -65 -82 -113 -82 -164 -1 -266 30 -36
40 -59 40 -85 0 -34 -33 -102 -50 -102 -22 0 -239 327 -352 530 -97 173 -116
212 -193 385 -281 633 -417 1284 -418 1995 -1 292 9 445 44 700 147 1061 649
2051 1440 2839 845 842 1936 1337 3139 1424 112 8 569 6 691 -3z m5942 -655
c103 -159 204 -324 225 -364 36 -72 37 -79 37 -180 0 -94 -3 -113 -27 -163
-35 -76 -95 -138 -170 -179 -55 -29 -74 -34 -153 -37 -68 -3 -101 0 -135 13
-25 9 -59 19 -76 22 -30 5 -33 1 -189 -227 -108 -160 -162 -230 -173 -228 -9
2 -65 79 -126 172 -99 152 -109 171 -99 195 5 14 66 106 136 204 70 97 131
186 137 198 10 17 7 28 -14 60 -15 21 -29 39 -32 39 -3 0 -91 -56 -197 -125
-105 -69 -198 -124 -206 -123 -25 5 -211 289 -208 318 2 20 26 41 122 103 66
43 298 195 515 337 278 182 402 258 420 257 21 -2 54 -47 213 -292z m-9686
228 c-2 -32 -10 -83 -17 -113 -18 -77 -9 -105 42 -131 57 -29 148 -90 148 -99
0 -15 -36 -23 -133 -29 -65 -5 -102 -12 -112 -22 -8 -8 -24 -57 -35 -109 -11
-52 -22 -106 -26 -120 l-6 -25 -18 23 c-10 12 -35 65 -55 118 -21 53 -45 99
-56 104 -11 6 -64 8 -133 4 -80 -5 -116 -4 -116 4 0 5 41 43 91 83 105 84 103
71 40 222 -23 55 -41 103 -41 109 0 19 54 -2 123 -48 103 -68 108 -68 207 15
47 39 89 71 93 71 5 0 7 -26 4 -57z m6835 10 c18 -15 54 -46 80 -70 26 -24 56
-43 66 -43 11 0 66 29 123 65 57 36 108 65 112 65 14 0 -3 -59 -40 -147 -21
-50 -32 -89 -28 -101 3 -11 27 -37 53 -58 63 -50 122 -106 122 -116 0 -4 -54
-8 -121 -8 -66 0 -128 -4 -138 -10 -10 -5 -38 -57 -61 -115 -24 -58 -47 -105
-51 -105 -10 0 -34 64 -53 147 -10 39 -25 78 -35 87 -13 12 -46 16 -141 18
l-125 3 38 36 c21 20 61 49 90 64 105 56 113 78 77 193 -21 68 -26 122 -11
122 5 0 24 -12 43 -27z m-2972 -128 c537 -57 1025 -202 1523 -453 159 -80 207
-109 207 -123 0 -18 -25 -19 -865 -19 -955 0 -889 -5 -955 65 -78 83 -195 137
-330 154 -198 25 -526 -48 -780 -172 l-85 -42 -685 0 c-432 0 -687 4 -690 10
-10 18 320 193 536 284 408 171 874 276 1374 310 178 13 568 5 750 -14z m-378
-476 c199 -42 354 -209 420 -454 18 -70 22 -114 26 -350 5 -305 -2 -405 -27
-436 -17 -21 -18 -21 -209 -8 -148 10 -224 10 -334 2 -95 -8 -147 -8 -155 -2
-6 6 -16 33 -22 60 -77 356 -478 417 -1081 164 -74 -31 -225 -101 -335 -155
-818 -402 -1575 -958 -2588 -1903 -125 -116 -137 -118 -137 -18 1 95 24 140
124 236 741 709 1179 1098 1751 1556 648 519 1138 848 1609 1080 271 134 460
200 651 228 88 13 246 13 307 0z m-6136 -163 c3 -8 -8 -41 -25 -75 -35 -69
-39 -101 -13 -123 9 -9 202 -108 427 -221 226 -113 416 -212 423 -220 11 -12
-9 -30 -124 -112 -142 -102 -166 -114 -187 -97 -22 18 -113 51 -124 44 -6 -4
-15 -61 -21 -127 -10 -105 -16 -129 -47 -192 -41 -83 -89 -129 -184 -176 -58
-28 -77 -32 -169 -35 -102 -4 -215 10 -239 30 -19 16 -16 55 12 133 29 83 31
124 8 172 -24 50 -96 95 -148 91 l-40 -3 -82 -195 c-84 -198 -93 -230 -70
-248 6 -5 206 -75 442 -156 510 -174 485 -164 485 -184 0 -9 -50 -64 -111
-124 -101 -99 -113 -108 -148 -108 -22 0 -161 42 -332 101 -162 56 -331 114
-375 129 -45 15 -87 25 -93 21 -12 -8 -80 -221 -81 -253 0 -21 -50 -10 503
-111 252 -47 463 -89 469 -95 16 -16 -1 -51 -50 -104 -21 -24 -50 -64 -65 -90
-28 -49 -90 -88 -139 -88 -28 0 -257 42 -332 61 -31 8 -51 8 -57 2 -16 -16
-109 -351 -109 -392 0 -67 53 -111 132 -111 70 0 237 99 376 224 34 31 72 56
83 56 22 0 56 -50 65 -96 9 -47 -16 -85 -125 -193 -197 -197 -368 -283 -562
-284 -61 0 -85 5 -117 23 -73 41 -112 119 -112 224 0 70 29 268 61 413 31 146
35 189 15 196 -30 12 -111 18 -123 9 -16 -10 -85 -347 -117 -572 -49 -338 -80
-750 -58 -764 7 -4 52 7 101 23 94 33 191 41 261 21 76 -21 163 -96 216 -186
11 -18 13 -17 55 11 78 52 181 167 239 264 33 57 65 98 82 107 38 20 91 18
119 -5 l23 -18 -49 -112 c-95 -220 -223 -420 -350 -546 -106 -105 -176 -145
-271 -153 -77 -6 -125 10 -164 54 -25 29 -30 43 -30 88 0 29 7 73 15 96 20 56
19 64 -7 95 -41 47 -180 43 -229 -6 -17 -17 -19 -33 -18 -126 1 -204 13 -342
32 -360 15 -15 38 -14 349 20 441 49 659 69 665 63 6 -5 -114 -316 -127 -330
-5 -5 -190 -28 -412 -51 -222 -24 -411 -47 -421 -50 -25 -10 -30 -42 -18 -115
6 -36 11 -68 11 -72 0 -21 40 -26 104 -12 175 37 900 154 917 149 26 -8 24
-39 -5 -111 -13 -32 -32 -88 -41 -123 -27 -104 -35 -111 -163 -131 -74 -12
-102 -28 -102 -58 0 -31 52 -247 62 -259 15 -18 39 -16 89 7 81 36 153 20 182
-42 40 -86 46 -251 11 -351 -24 -69 -108 -193 -143 -211 -64 -33 -151 -9 -206
56 -16 18 -41 61 -58 95 -16 35 -33 65 -37 68 -5 3 -21 -6 -37 -19 l-28 -25
47 -93 c60 -118 71 -166 66 -281 -5 -102 -25 -155 -82 -215 -47 -51 -96 -72
-166 -72 -75 0 -126 24 -189 89 -144 148 -171 378 -69 575 44 84 164 201 254
248 92 49 101 59 87 106 -18 60 -97 276 -107 291 -6 9 -20 11 -45 7 -20 -3
-81 -13 -136 -21 -127 -20 -135 -22 -135 -46 0 -11 16 -90 35 -176 19 -86 35
-169 35 -184 0 -22 -18 -44 -87 -108 -49 -44 -96 -81 -105 -81 -27 0 -35 23
-87 252 -110 473 -167 850 -203 1318 -18 250 -15 854 6 1085 26 286 76 636
122 853 3 18 2 32 -3 32 -5 0 -49 -18 -98 -40 -146 -64 -217 -65 -285 -4 -114
103 -99 427 30 644 107 182 323 338 545 392 49 12 95 30 108 42 13 12 40 69
61 126 63 170 160 390 275 620 106 212 254 485 272 505 6 6 56 13 112 16 187
10 197 10 203 -5z m4934 -79 c0 -8 -64 -51 -142 -98 -187 -109 -516 -329 -698
-465 -80 -59 -161 -113 -180 -120 -27 -10 -165 -13 -578 -14 l-543 0 22 31
c85 120 473 457 712 619 l88 60 660 0 c543 0 659 -2 659 -13z m3642 -56 c258
-175 708 -576 708 -632 0 -6 -512 -8 -1300 -7 -1039 2 -1302 6 -1312 16 -9 9
-15 66 -20 180 -7 181 -24 284 -64 405 -14 43 -23 84 -20 92 5 13 130 15 955
15 l950 0 103 -69z m-7257 -602 c10 -72 23 -136 30 -142 6 -7 64 -23 128 -36
64 -14 117 -27 117 -31 0 -9 -102 -66 -153 -85 -76 -28 -82 -44 -62 -163 27
-162 25 -163 -86 -49 -52 53 -102 97 -110 97 -8 0 -52 -18 -97 -40 -46 -23
-97 -44 -113 -47 l-30 -6 51 89 c29 49 56 93 61 98 23 25 6 59 -72 146 -44 49
-78 94 -74 100 9 15 53 12 138 -10 88 -23 120 -17 139 27 12 28 107 183 113
183 1 0 10 -59 20 -131z m9532 10 c78 -138 61 -131 231 -95 122 26 131 23 90
-30 -12 -16 -46 -55 -75 -87 -29 -32 -53 -64 -53 -72 0 -8 25 -60 56 -115 31
-55 54 -103 51 -106 -8 -8 -84 14 -161 48 -81 35 -103 32 -142 -19 -51 -67
-116 -133 -126 -127 -6 4 -7 50 -3 123 8 131 5 137 -70 165 -87 31 -156 67
-150 77 10 16 51 29 140 44 108 19 120 33 129 155 12 148 20 151 83 39z m2203
-14 c10 -9 27 -40 36 -69 9 -28 37 -98 61 -155 23 -57 43 -114 43 -127 0 -17
-74 -83 -337 -298 -186 -151 -414 -338 -508 -415 -93 -77 -177 -140 -186 -141
-12 0 -35 46 -83 164 -36 90 -66 174 -66 188 0 29 23 52 102 101 62 40 74 62
65 126 -5 44 -96 248 -112 254 -5 3 -57 -2 -114 -10 -123 -17 -139 -11 -166
64 -10 26 -33 81 -51 122 -39 84 -41 97 -16 110 10 5 225 26 478 46 252 20
522 42 599 50 169 16 228 14 255 -10z m-9339 -171 c5 -3 -42 -46 -103 -96
-121 -98 -261 -216 -536 -450 l-172 -148 -361 0 -360 0 38 73 c90 172 410 606
462 627 27 10 1014 5 1032 -6z m2021 -23 c27 -30 48 -86 48 -129 0 -25 -16
-42 -97 -103 -63 -47 -66 -66 -18 -122 72 -84 71 -212 -2 -289 l-27 -28 -1043
0 c-664 0 -1043 4 -1043 10 0 13 284 200 461 303 192 112 454 251 609 324
l125 58 425 6 c540 7 528 8 562 -30z m3690 6 c37 -21 72 -62 168 -192 150
-204 310 -452 310 -479 0 -3 -699 -5 -1554 -4 l-1555 3 -28 21 c-93 69 -96
166 -7 299 42 64 41 68 -43 115 -69 39 -88 78 -80 165 9 96 7 94 105 98 48 2
661 3 1362 3 l1275 -1 47 -28z m-3081 -237 c105 -12 258 -51 294 -74 23 -15
26 -23 23 -63 -5 -71 -16 -73 -160 -27 l-123 39 -170 0 -170 0 -113 -38 c-62
-21 -123 -37 -135 -35 -27 4 -51 51 -43 84 8 31 56 54 174 84 147 37 280 46
423 30z m-5 -241 c79 -24 173 -87 227 -152 70 -84 87 -96 161 -117 297 -85
586 -226 816 -398 95 -71 283 -254 363 -352 212 -262 392 -629 461 -941 39
-179 49 -299 43 -529 -10 -360 -75 -649 -212 -937 -270 -570 -846 -1044 -1454
-1197 -353 -89 -745 -96 -1081 -20 -218 50 -539 188 -722 311 -193 130 -382
303 -530 488 -316 395 -488 889 -488 1403 0 250 30 439 107 673 146 447 432
848 804 1126 176 131 462 278 643 329 199 57 298 109 410 213 135 125 271 155
452 100z m7058 -342 c15 -15 25 -41 30 -74 3 -28 20 -99 36 -158 21 -74 27
-111 21 -123 -7 -14 -108 -43 -418 -119 -797 -198 -800 -198 -816 -184 -9 7
-23 45 -32 84 -9 40 -27 118 -42 175 -20 80 -23 106 -14 115 10 10 1164 305
1199 306 7 1 23 -9 36 -22z m-10680 -6 c3 -5 -47 -57 -112 -117 -64 -59 -224
-209 -355 -333 -154 -146 -250 -230 -273 -238 -49 -18 -154 -6 -154 17 0 55
226 610 272 668 8 9 83 12 314 12 166 0 305 -4 308 -9z m2536 4 c0 -3 -42 -26
-92 -51 -51 -25 -133 -76 -181 -112 -185 -137 -368 -234 -800 -426 l-238 -106
-746 2 -746 3 154 131 c202 171 466 381 607 483 l114 81 964 0 c530 0 964 -2
964 -5z m4733 -7 c29 -22 227 -476 267 -615 24 -80 135 -73 -1138 -73 l-1138
0 -95 103 c-222 241 -433 403 -696 535 -45 23 -84 46 -88 52 -10 16 2866 14
2888 -2z m-5658 -697 c-75 -116 -156 -266 -270 -501 -93 -193 -83 -175 -92
-166 -9 8 -4 445 5 530 l7 59 205 92 c113 51 206 91 208 90 2 -1 -27 -48 -63
-104z m9225 7 c5 -13 16 -84 25 -158 9 -74 19 -146 21 -160 11 -55 2 -57 -341
-105 -176 -25 -378 -52 -448 -62 -71 -9 -136 -22 -145 -29 -15 -11 -14 -27 13
-205 42 -281 42 -277 13 -288 -12 -5 -78 -17 -146 -27 -107 -15 -125 -16 -137
-3 -10 9 -24 80 -40 199 -15 102 -42 288 -61 414 -43 287 -48 274 106 291 30
4 219 31 420 61 437 64 634 92 678 93 25 1 35 -4 42 -21z m-12972 -106 c43
-90 73 -116 122 -108 155 28 190 29 190 5 0 -5 -36 -44 -80 -88 -44 -43 -80
-85 -80 -93 0 -8 25 -63 56 -122 31 -59 53 -110 50 -114 -4 -3 -57 20 -119 51
-62 32 -120 57 -129 57 -10 0 -30 -14 -45 -32 -72 -83 -126 -137 -134 -132
-14 8 -10 103 5 163 19 70 9 94 -51 125 -106 53 -186 105 -172 111 8 3 58 11
111 19 133 20 158 37 158 103 0 26 22 125 36 163 8 22 39 -19 82 -108z m11002
73 c5 -14 14 -56 20 -93 16 -107 18 -112 53 -126 18 -8 64 -17 102 -21 83 -8
146 -25 139 -36 -3 -5 -47 -32 -99 -59 -51 -28 -99 -57 -105 -65 -16 -19 -16
-54 -1 -108 7 -23 11 -68 9 -99 l-3 -57 -93 84 c-51 47 -100 85 -109 85 -9 0
-63 -25 -121 -56 -57 -30 -106 -54 -108 -51 -6 6 31 109 60 163 14 27 26 58
26 69 0 12 -37 54 -97 111 l-98 91 60 -4 c33 -2 93 -9 133 -15 67 -10 75 -9
98 8 14 10 40 54 59 97 30 71 51 107 61 107 3 0 9 -11 14 -25z m-9747 -101
c17 -17 -50 -94 -82 -94 -15 0 6 73 25 87 19 14 47 17 57 7z m8449 -2 c10 -1
24 -12 32 -25 26 -39 126 -529 126 -617 0 -20 -5 -41 -12 -48 -9 -9 -249 -12
-1018 -12 -947 0 -1008 1 -1022 18 -8 9 -34 76 -57 147 -43 133 -152 368 -216
464 -23 35 -32 57 -26 65 7 8 299 11 1093 10 595 -1 1091 -2 1100 -2z m-6458
-22 c-1 -16 -410 -617 -447 -657 l-20 -23 -853 0 c-768 0 -852 2 -858 16 -11
29 -6 69 12 94 27 40 554 533 612 573 23 16 81 17 790 15 683 -3 765 -5 764
-18z m66 -1727 c-17 -2327 -25 -2996 -34 -3016 -5 -10 -17 -22 -27 -27 -10 -6
-384 -136 -831 -289 -447 -154 -1008 -347 -1247 -430 -415 -144 -501 -171
-501 -157 0 13 125 226 133 226 4 0 7 -11 7 -24 0 -30 18 -44 26 -21 4 9 -1
24 -10 34 -18 20 -21 42 -7 56 5 6 136 237 291 515 156 278 330 588 388 690
61 107 105 196 105 211 0 15 -14 45 -31 67 -39 48 -62 101 -62 139 0 56 23
104 122 259 55 88 178 287 273 444 l171 285 12 89 c15 114 53 196 171 371 104
153 157 254 204 391 48 137 71 242 127 576 l49 289 79 112 c43 62 179 258 302
437 229 333 289 415 297 406 3 -3 0 -737 -7 -1633z m-636 898 c3 -5 -9 -28
-28 -50 -71 -85 -103 -180 -136 -407 -26 -173 -36 -211 -60 -224 -12 -6 -259
-10 -704 -10 l-685 0 -15 22 c-14 19 -16 68 -16 331 0 193 4 316 10 328 10 19
30 19 820 19 472 0 811 -4 814 -9z m7196 -1 c23 -14 28 -631 5 -666 l-15 -24
-973 0 c-825 0 -976 2 -993 14 -18 13 -19 29 -20 238 -1 138 -7 259 -16 318
-8 52 -13 103 -10 112 4 17 57 18 1006 18 613 0 1007 -4 1016 -10z m3254 -80
c0 -30 -4 -108 -9 -172 -6 -92 -12 -121 -25 -133 -12 -11 -115 -32 -316 -65
-165 -28 -314 -52 -331 -55 -18 -3 -33 -10 -33 -14 0 -10 258 -97 490 -166 85
-25 161 -52 168 -59 19 -18 -1 -296 -22 -311 -7 -5 -162 -37 -345 -69 -182
-33 -331 -63 -331 -68 0 -13 51 -35 141 -62 46 -13 156 -47 244 -74 88 -28
179 -55 202 -61 72 -20 76 -28 68 -160 -8 -148 -12 -171 -33 -171 -9 0 -251
81 -537 181 -286 99 -559 194 -607 211 -47 16 -89 35 -92 43 -5 13 11 260 20
302 2 12 12 24 22 27 9 3 150 28 313 55 162 28 306 55 320 60 l24 9 -30 12
c-16 6 -157 51 -314 100 -157 50 -292 96 -300 105 -13 12 -13 36 -3 172 10
133 15 160 30 173 12 10 194 48 498 103 263 48 535 101 604 116 69 16 139 28
155 28 30 -2 30 -3 29 -57z m-10693 -764 c18 -39 -15 -175 -67 -281 -89 -181
-175 -340 -197 -363 -44 -47 -38 -47 -507 -43 -417 2 -446 4 -464 21 -20 20
-58 169 -100 395 -34 183 -41 262 -26 280 11 13 100 15 681 15 l669 0 11 -24z
m7417 12 c7 -7 12 -28 12 -48 0 -94 -98 -585 -126 -627 l-14 -23 -938 0 c-716
0 -941 3 -950 12 -15 15 -17 623 -3 662 6 13 18 26 28 29 10 3 459 5 999 6
750 1 983 -2 992 -11z m-9945 -223 c96 -88 109 -91 194 -40 32 19 75 41 96 50
l37 15 0 -25 c0 -14 -18 -61 -40 -105 -22 -44 -40 -88 -40 -97 0 -10 43 -59
97 -110 l98 -92 -55 0 c-30 0 -83 6 -118 13 -102 22 -136 3 -172 -95 -11 -33
-32 -72 -45 -87 l-23 -27 -11 27 c-5 14 -13 55 -17 90 -10 94 -26 126 -66 132
-160 24 -229 39 -225 49 2 6 41 32 88 58 111 62 133 83 124 117 -10 42 -18
202 -10 202 4 0 43 -34 88 -75z m11200 34 c0 -19 -7 -71 -14 -116 -15 -99 -15
-100 90 -153 97 -49 147 -86 127 -93 -8 -3 -47 -9 -87 -12 -114 -10 -147 -21
-164 -55 -8 -16 -15 -42 -15 -57 0 -28 -27 -143 -35 -152 -11 -10 -39 28 -82
111 -28 55 -54 93 -67 98 -12 4 -51 2 -91 -6 -87 -17 -155 -18 -155 -3 0 6 36
48 80 93 44 46 80 91 80 102 0 10 -10 35 -21 54 -34 56 -79 146 -79 160 0 20
47 4 132 -46 109 -62 118 -61 208 36 41 44 80 78 85 76 6 -2 9 -18 8 -37z
m-7714 -46 c75 -260 224 -544 401 -768 35 -44 68 -86 73 -93 9 -12 -20 -13
-170 -10 -217 4 -223 1 -223 -92 0 -31 -5 -61 -12 -68 -16 -16 -83 -15 -96 1
-10 13 -24 1092 -14 1102 13 12 19 1 41 -72z m4381 -554 c0 -291 -4 -457 -10
-470 -13 -23 -62 -26 -81 -3 -7 8 -16 40 -20 71 -4 31 -13 61 -19 67 -6 7 -69
13 -158 16 -173 6 -178 11 -112 90 113 135 322 495 346 595 9 41 32 85 44 85
6 0 10 -165 10 -451z m4051 98 c30 -18 200 -126 379 -239 179 -112 392 -247
474 -299 82 -52 159 -106 170 -122 20 -27 20 -29 3 -90 -10 -34 -31 -111 -47
-171 -16 -61 -37 -118 -47 -127 -16 -16 -72 -20 -508 -38 -269 -12 -563 -26
-653 -31 -90 -6 -168 -8 -173 -5 -15 10 -11 36 26 171 59 216 56 208 95 221
19 7 63 12 98 12 96 1 126 18 151 85 12 31 21 61 21 66 0 5 9 38 21 72 28 86
19 105 -71 159 -77 45 -110 80 -110 113 0 31 49 214 63 237 17 27 46 24 108
-14z m-9783 -165 c6 -38 -27 -181 -59 -257 -16 -38 -71 -140 -122 -225 -83
-138 -98 -157 -137 -177 -87 -45 -193 -22 -235 51 -43 74 -209 478 -240 584
-15 52 -14 52 404 50 l386 -3 3 -23z m7639 12 c8 -21 -7 -69 -83 -263 -93
-237 -176 -407 -204 -416 -12 -4 -366 -7 -787 -8 -654 -1 -766 1 -774 14 -14
22 -12 662 3 677 9 9 228 12 925 12 822 0 914 -2 920 -16z m-2399 -362 l-3
-47 -53 -3 c-53 -3 -53 -3 -41 20 6 13 28 41 48 63 42 48 54 40 49 -33z
m-3313 9 c51 -47 50 -58 -7 -67 -28 -5 -40 -2 -57 15 -21 21 -27 63 -15 95 7
19 18 14 79 -43z m-153 -167 c79 -41 113 -165 69 -251 -29 -58 -73 -86 -140
-91 -46 -3 -62 0 -91 20 -101 69 -116 197 -33 289 53 59 122 71 195 33z m428
-69 c147 -104 209 -141 361 -215 266 -128 673 -230 920 -230 187 0 458 30 596
66 336 88 555 190 823 383 116 85 125 89 133 69 4 -11 6 -111 5 -222 l-3 -201
-25 1 c-14 1 -45 10 -70 20 -28 11 -71 18 -116 18 -60 0 -81 -5 -137 -32 -36
-18 -88 -53 -115 -77 l-50 -45 -990 0 -991 0 -58 51 c-103 92 -201 120 -325
94 -40 -8 -79 -15 -85 -15 -10 0 -13 50 -13 216 0 169 3 214 13 208 6 -4 64
-44 127 -89z m3288 71 c36 -19 78 -65 91 -99 25 -64 9 -141 -37 -190 -39 -41
-74 -57 -128 -57 -90 0 -152 65 -161 168 -6 70 23 134 76 169 40 27 117 31
159 9z m1772 -321 c10 -12 5 -26 -24 -78 -80 -144 -306 -463 -398 -563 l-41
-44 -496 0 c-373 0 -500 3 -509 12 -17 17 -17 659 0 676 9 9 186 12 734 12
623 0 723 -2 734 -15z m-4893 -143 c133 -69 196 -207 159 -352 -19 -75 -63
-140 -119 -178 -59 -41 -99 -52 -181 -52 -117 1 -209 55 -264 157 -93 175 -13
379 172 439 60 20 181 13 233 -14z m2608 -4 c134 -69 195 -221 150 -373 -13
-46 -28 -70 -73 -115 -68 -68 -124 -90 -226 -90 -211 0 -344 194 -281 408 21
70 99 154 168 182 74 29 192 24 262 -12z m-3036 6 c38 -8 40 -26 5 -53 -26
-20 -38 -21 -319 -21 -250 0 -294 2 -305 15 -10 12 -10 21 -2 40 l12 25 289 0
c158 0 303 -3 320 -6z m3776 -34 l0 -35 -293 -3 -292 -2 -20 32 c-11 18 -20
36 -20 41 0 4 141 6 313 5 l312 -3 0 -35z m-6966 -198 c-12 -145 -6 -161 62
-181 53 -15 169 -71 169 -81 0 -8 -87 -29 -168 -40 -96 -13 -110 -32 -118
-163 -2 -43 -9 -88 -15 -99 -10 -18 -14 -15 -45 37 -19 31 -44 75 -55 96 -28
56 -55 66 -126 46 -32 -9 -84 -20 -115 -25 -51 -8 -58 -7 -58 8 0 23 51 92 83
113 35 23 60 72 51 100 -4 12 -29 60 -55 106 -27 47 -49 89 -49 94 0 13 40 2
141 -39 48 -19 95 -34 105 -34 11 0 56 40 108 96 48 52 90 94 91 92 2 -2 -1
-59 -6 -126z m9437 8 c79 -98 83 -99 218 -34 53 26 99 44 102 41 9 -8 -31 -92
-67 -142 -49 -68 -44 -91 32 -172 60 -65 98 -118 88 -127 -2 -2 -57 5 -121 17
-92 16 -120 18 -131 8 -8 -6 -38 -52 -67 -101 -28 -49 -55 -92 -60 -95 -13 -8
-28 50 -38 141 -14 125 -9 120 -183 154 -31 6 -65 17 -75 25 -17 13 -10 18 86
63 58 27 112 57 119 66 11 13 11 34 -3 128 -9 62 -16 119 -16 126 0 23 57 -25
116 -98z m-3714 56 c4 -6 5 -43 1 -81 -4 -52 -1 -87 11 -129 10 -32 15 -65 12
-72 -7 -19 -568 -21 -583 -1 -6 6 -13 63 -17 125 -7 116 -1 143 33 169 21 15
533 5 543 -11z m-2600 -76 c-2 -57 2 -102 12 -135 29 -93 53 -85 -268 -85
-245 0 -287 2 -300 16 -13 12 -16 40 -16 135 0 66 5 129 10 140 10 19 22 19
288 17 l277 -3 -3 -85z m1956 78 c8 -8 12 -54 12 -143 0 -89 -4 -135 -12 -143
-17 -17 -83 -15 -98 3 -8 10 -11 44 -10 102 4 128 4 131 -30 148 -43 22 -353
8 -393 -17 -32 -21 -42 -64 -27 -118 9 -34 15 -41 33 -38 18 2 23 10 25 48 2
24 8 50 14 57 7 9 49 13 148 13 164 0 163 0 168 -105 6 -108 12 -105 -228
-105 -167 0 -201 2 -214 16 -13 12 -16 40 -16 134 0 121 -7 141 -41 119 -11
-6 -14 -37 -16 -130 -1 -89 -5 -124 -15 -130 -17 -12 -539 -11 -557 0 -9 6
-12 17 -7 32 34 122 36 134 26 191 -6 32 -8 63 -5 68 10 16 1228 13 1243 -2z
m1899 0 c14 -18 23 -201 12 -242 -17 -62 -15 -61 -308 -58 -146 2 -267 5 -269
7 -2 1 4 31 14 66 11 46 15 88 11 146 -2 45 -2 84 1 87 3 4 123 6 267 6 198 0
265 -3 272 -12z m3694 -32 c57 -24 146 -65 197 -92 89 -47 96 -48 190 -52 63
-2 169 5 307 22 319 38 475 50 487 38 8 -8 -12 -63 -66 -189 -43 -98 -81 -182
-86 -187 -5 -5 -102 -17 -217 -27 -114 -10 -216 -20 -227 -21 -15 -2 10 -39
118 -173 74 -93 136 -179 136 -190 0 -35 -122 -306 -138 -304 -7 0 -117 139
-350 444 -184 240 -135 204 -501 360 -146 63 -160 74 -144 113 38 93 121 273
132 286 21 25 50 20 162 -28z m-7437 -356 c23 -11 57 -33 76 -49 l35 -30 -388
-1 -387 0 -11 24 c-7 14 -9 36 -5 50 l6 26 317 0 c295 0 320 -1 357 -20z
m2588 8 c21 -6 55 -26 76 -44 l37 -33 -1150 -1 -1150 0 31 31 c61 60 16 58
1113 59 736 0 1014 -3 1043 -12z m1166 -26 c6 -64 17 -62 -390 -62 -400 0
-399 0 -322 51 69 46 83 48 404 46 l305 -2 3 -33z m-18 -112 c19 -19 20 -33
20 -370 l0 -351 -22 -21 c-24 -22 -757 -446 -780 -450 -10 -2 -14 20 -18 87
l-5 90 -86 0 c-73 0 -91 -3 -109 -20 -20 -18 -22 -27 -18 -98 3 -53 9 -82 19
-88 8 -5 41 -9 74 -9 l60 -1 -23 -19 c-41 -34 -355 -217 -397 -231 -25 -8 -81
-13 -152 -12 -78 1 -115 -2 -122 -11 -6 -7 -9 -35 -8 -62 3 -71 -16 -94 -135
-160 -57 -31 -187 -106 -290 -166 -102 -59 -196 -108 -207 -108 -26 0 -731
408 -738 427 -3 8 6 27 21 42 40 41 34 50 -26 39 -74 -14 -156 5 -253 56 -210
112 -410 234 -413 252 -2 12 22 48 62 94 l65 75 -52 7 c-109 13 -204 9 -257
-12 -67 -26 -88 -25 -141 8 -24 15 -82 48 -129 73 -115 61 -170 97 -177 115
-7 18 47 76 160 171 42 37 77 72 77 80 0 10 -33 13 -164 13 -140 0 -165 -2
-170 -16 -3 -9 -6 -54 -6 -100 0 -75 -2 -84 -18 -84 -48 0 -50 11 -53 398 -4
314 -2 364 11 372 9 6 837 10 2198 10 2169 0 2182 0 2202 -20z m930 -18 c0
-19 -185 -205 -327 -329 -167 -146 -443 -347 -491 -360 -50 -12 -52 1 -52 362
0 183 3 335 7 338 3 4 199 7 435 7 402 0 428 -1 428 -18z m2525 -330 c37 -13
51 -23 53 -39 3 -21 -93 -253 -124 -300 -11 -18 -24 -23 -57 -23 -108 0 -220
-78 -246 -171 -41 -149 44 -137 248 34 63 52 148 115 190 139 76 43 76 43 176
43 93 0 105 -2 167 -33 210 -103 267 -358 137 -620 -94 -192 -281 -328 -474
-346 -125 -12 -146 22 -102 156 13 40 30 92 36 115 13 48 48 73 101 73 81 0
180 107 180 195 0 28 -5 38 -25 47 -38 17 -71 -3 -229 -140 -76 -66 -165 -134
-196 -151 -109 -58 -252 -58 -362 1 -162 86 -239 269 -194 463 22 92 102 255
163 330 83 103 214 192 338 231 57 18 161 16 220 -4z m-7579 -257 c20 -8 33
-19 29 -25 -3 -5 -44 -40 -91 -76 -102 -79 -110 -77 -107 27 2 39 5 75 8 80
10 14 122 11 161 -6z m-358 -87 c27 -27 7 -181 -27 -209 -11 -9 -109 -38 -218
-64 -278 -66 -1642 -408 -1793 -449 -154 -42 -131 -47 34 -7 67 16 218 50 336
75 651 138 1267 270 1427 305 194 44 238 49 246 29 2 -7 1 -89 -2 -183 l-6
-170 -35 -7 c-31 -7 -566 -50 -1165 -94 -110 -8 -311 -23 -446 -34 -135 -11
-286 -20 -335 -20 -50 0 -135 -7 -190 -15 -107 -16 -364 -21 -348 -6 24 22
349 137 1218 432 517 176 1011 344 1096 374 164 57 189 62 208 43z m5746 -230
c13 -24 34 -72 47 -108 35 -102 32 -100 178 -100 l125 0 -35 -36 c-18 -19 -55
-51 -82 -71 -74 -54 -74 -56 -21 -188 26 -63 44 -118 41 -121 -12 -12 -52 6
-132 56 -43 27 -84 50 -91 50 -6 0 -53 -34 -105 -76 l-94 -77 -3 43 c-2 24 6
79 18 122 27 100 24 105 -104 184 -52 32 -95 62 -96 65 0 8 138 29 191 29 63
0 81 25 108 158 13 61 25 112 27 112 2 0 14 -19 28 -42z m-4884 -183 c-40 -41
-59 -49 -91 -36 -35 15 -71 49 -64 61 3 6 46 10 98 10 l91 0 -34 -35z m-665
-54 c162 -80 357 -158 550 -221 200 -64 251 -88 408 -192 69 -46 211 -136 316
-202 173 -108 212 -139 196 -154 -8 -9 -264 26 -435 59 -391 76 -831 218
-1121 364 l-67 34 -7 175 c-4 96 -4 179 0 185 12 20 38 12 160 -48z m-201
-386 c0 -118 -24 -201 -83 -292 -68 -105 -144 -157 -231 -157 -119 -1 -201 84
-282 294 -9 23 -12 20 -38 -52 -60 -164 -140 -277 -226 -318 -36 -18 -58 -21
-109 -18 -110 7 -176 69 -239 225 l-32 80 -33 -73 c-20 -43 -48 -87 -68 -104
-29 -26 -41 -30 -94 -30 -33 0 -72 6 -88 14 -37 19 -105 95 -130 145 -12 23
-23 41 -24 41 -1 0 -25 -29 -52 -65 -110 -146 -214 -159 -311 -39 -61 76 -60
76 -107 34 -46 -40 -85 -39 -178 4 -41 18 -137 50 -214 71 -77 20 -146 41
-152 47 -7 6 -13 26 -13 44 0 45 10 48 190 63 390 32 1063 83 1395 106 409 28
532 38 740 60 77 8 156 16 175 18 19 2 73 4 120 3 l85 -1 -1 -100z m4196 -449
c6 -146 7 -147 93 -166 93 -20 157 -41 151 -51 -9 -15 -82 -49 -138 -66 -85
-25 -86 -27 -86 -175 0 -70 -4 -128 -8 -128 -11 0 -71 65 -117 127 -21 28 -46
53 -55 56 -9 2 -44 -7 -76 -20 -67 -28 -165 -55 -172 -48 -3 2 25 50 62 106
36 56 66 112 66 125 0 13 -15 41 -33 61 -60 68 -107 135 -101 145 8 12 72 2
152 -24 76 -24 106 -18 128 24 34 66 108 168 118 165 7 -2 13 -53 16 -131z
m-3934 29 c34 -49 70 -93 80 -97 13 -6 57 4 137 31 81 28 117 36 117 27 0 -14
-40 -71 -106 -153 -24 -30 -44 -63 -44 -73 0 -11 15 -41 34 -67 38 -54 90
-153 80 -153 -4 0 -51 16 -105 36 -63 24 -106 34 -122 30 -14 -3 -39 -27 -59
-58 -20 -29 -57 -75 -82 -103 l-45 -50 -1 126 c0 106 -3 130 -17 146 -10 11
-66 37 -125 58 -59 22 -105 42 -102 46 2 4 56 24 119 44 77 25 121 45 130 59
11 15 15 50 15 127 0 151 7 153 96 24z m1841 -377 c68 -49 97 -49 154 1 55 48
118 91 134 91 17 0 4 -64 -29 -153 -38 -100 -36 -108 37 -160 34 -25 75 -59
91 -75 l29 -31 -28 -7 c-15 -4 -63 -4 -106 0 -74 6 -81 5 -102 -17 -14 -13
-31 -51 -41 -91 -9 -38 -26 -86 -37 -108 -27 -53 -42 -40 -75 71 -37 123 -43
128 -167 133 -56 2 -108 7 -115 12 -9 6 13 29 78 79 53 42 93 81 97 94 3 14
-5 54 -21 96 -14 40 -29 92 -32 116 l-7 43 44 -28 c24 -16 67 -46 96 -66z"/>
<path d="M16576 19384 c-8 -8 -20 -40 -26 -72 -7 -31 -36 -159 -66 -283 -30
-124 -54 -241 -54 -261 0 -50 20 -63 100 -62 77 0 135 28 190 91 146 165 125
491 -36 568 -63 30 -92 35 -108 19z"/>
<path d="M18391 18380 c-55 -61 -101 -117 -101 -125 0 -18 139 -90 151 -78 6
6 79 291 79 309 0 2 -6 4 -14 4 -7 0 -59 -50 -115 -110z"/>
<path d="M20963 16322 c-23 -15 -57 -36 -75 -47 -60 -37 -59 -60 11 -158 34
-48 70 -91 81 -97 37 -20 98 -12 130 18 49 43 50 87 7 175 -33 66 -88 137
-105 137 -4 0 -26 -13 -49 -28z"/>
<path d="M8663 15523 c-19 -7 -73 -108 -73 -136 0 -24 7 -28 68 -46 192 -58
251 -164 207 -377 -9 -41 15 -51 64 -27 68 34 101 116 101 256 0 143 -29 182
-207 271 -116 58 -141 67 -160 59z"/>
<path d="M7773 14401 c-144 -49 -240 -173 -251 -322 -6 -85 1 -89 112 -66 95
19 123 38 153 98 27 54 87 275 79 295 -7 18 -30 17 -93 -5z"/>
<path d="M8272 9998 c-38 -48 -39 -211 -1 -249 20 -20 46 -17 67 9 17 22 15
149 -4 205 -16 48 -40 61 -62 35z"/>
<path d="M21490 14974 c-47 -7 -108 -13 -137 -13 -65 -1 -72 -17 -43 -94 25
-68 42 -84 73 -70 67 31 244 196 205 192 -7 -1 -51 -7 -98 -15z"/>
<path d="M15139 14531 c-2 -6 -2 -185 1 -398 5 -363 6 -388 23 -391 10 -2 29
4 42 12 l25 16 0 369 c0 297 -3 371 -13 380 -21 16 -74 25 -78 12z"/>
<path d="M14995 14517 c-3 -6 -4 -181 -3 -387 l3 -375 38 -3 37 -3 0 390 0
391 -35 0 c-20 0 -38 -6 -40 -13z"/>
<path d="M14860 14451 l-31 -30 3 -291 c3 -278 4 -292 23 -306 11 -8 29 -13
40 -12 20 3 20 11 22 325 1 362 0 371 -57 314z"/>
<path d="M15306 14473 c-11 -12 -7 -673 5 -673 6 0 24 13 40 29 l29 29 0 279
c0 236 -2 282 -16 301 -17 25 -49 44 -58 35z"/>
<path d="M14734 14268 c-14 -32 -19 -66 -19 -138 0 -81 3 -100 22 -130 l23
-35 0 173 c0 94 -2 172 -3 172 -2 0 -13 -19 -23 -42z"/>
<path d="M15457 14284 c-10 -11 -9 -294 2 -294 35 0 51 217 20 273 -8 15 -18
25 -22 21z"/>
<path d="M14490 14167 c-286 -105 -401 -160 -561 -267 -692 -466 -1042 -1312
-883 -2135 74 -381 260 -734 539 -1023 185 -192 353 -318 565 -426 284 -144
553 -212 880 -223 264 -9 463 21 736 112 542 179 959 557 1215 1101 270 571
261 1175 -25 1779 -163 342 -406 620 -728 829 -179 117 -592 292 -624 266 -6
-6 -14 -43 -17 -83 -12 -152 -73 -264 -192 -354 -38 -29 -73 -59 -78 -68 -10
-18 9 -101 24 -111 5 -3 53 -16 107 -29 240 -59 451 -181 637 -369 205 -206
330 -439 392 -726 26 -121 25 -420 -1 -540 -38 -177 -120 -367 -226 -530 -75
-115 -242 -285 -350 -357 -369 -247 -828 -318 -1230 -191 -430 136 -782 482
-924 908 -43 131 -57 218 -63 390 -8 254 28 440 127 647 188 395 548 686 963
778 97 21 121 40 121 91 0 33 -6 43 -49 78 -162 134 -225 248 -225 411 0 70
-30 79 -130 42z m-398 -504 c12 -10 18 -30 18 -56 0 -36 -7 -47 -88 -131 -246
-256 -242 -250 -200 -307 28 -37 29 -91 3 -120 -18 -19 -26 -21 -91 -15 -71 7
-72 6 -98 -24 -76 -91 -169 -293 -216 -473 -77 -289 -63 -554 43 -850 51 -142
56 -147 124 -147 70 0 93 -18 93 -71 0 -25 -8 -47 -25 -67 -14 -17 -25 -37
-25 -46 0 -8 34 -65 76 -127 84 -123 104 -163 104 -210 0 -66 -109 -132 -162
-97 -11 8 -64 88 -117 179 l-97 164 -76 -4 c-71 -3 -79 -1 -102 23 -38 37 -34
71 13 115 66 60 67 73 22 231 -51 176 -70 277 -80 429 -24 342 48 651 224 962
30 53 55 105 55 116 0 10 -13 35 -30 55 -54 65 -58 100 -17 146 24 26 68 29
120 7 20 -8 43 -15 52 -15 9 0 93 79 188 175 l172 175 49 0 c32 0 56 -6 68
-17z m2199 -90 c61 -59 136 -139 167 -176 61 -75 56 -73 149 -47 49 14 85 8
113 -20 25 -25 26 -74 2 -98 -32 -32 -52 -66 -52 -89 0 -12 35 -91 78 -175 84
-163 148 -345 179 -503 13 -67 18 -141 18 -290 0 -225 -16 -328 -82 -544 -46
-152 -46 -165 11 -217 53 -48 60 -84 25 -128 -20 -25 -25 -27 -94 -24 -49 2
-77 -1 -88 -10 -9 -8 -37 -53 -63 -100 -123 -227 -167 -268 -249 -230 -55 25
-72 116 -36 186 11 20 49 79 85 131 36 52 66 103 66 114 0 10 -11 33 -25 51
-28 37 -32 82 -11 112 11 14 30 20 77 24 78 6 86 16 139 170 60 177 80 292 80
468 0 175 -16 283 -66 432 -40 122 -156 359 -196 402 -27 29 -29 29 -96 22
-63 -6 -72 -4 -91 15 -29 29 -27 77 5 125 21 30 24 43 16 60 -5 11 -72 86
-147 165 -164 172 -189 217 -145 261 15 15 33 20 71 20 l50 0 110 -107z m-242
-2622 c21 -30 28 -61 13 -61 -5 0 -15 11 -22 25 -16 30 -27 31 -53 8 -18 -17
-20 -17 -33 2 -13 18 -13 22 7 38 32 26 64 21 88 -12z m72 -84 c-7 -7 -11 -67
-11 -159 0 -146 0 -148 -20 -138 -17 9 -20 21 -20 76 0 64 0 65 -22 53 -81
-41 -104 -115 -48 -147 31 -18 40 -42 15 -42 -8 0 -30 14 -50 31 -27 24 -35
39 -35 65 0 53 20 82 82 120 50 31 58 40 58 66 0 16 -3 28 -7 26 -5 -1 -45
-25 -90 -52 l-83 -49 0 -133 c0 -77 -4 -134 -9 -134 -16 0 -40 41 -34 57 4 10
-4 9 -28 -6 -47 -29 -64 -26 -107 14 -35 34 -36 37 -18 48 35 22 56 47 56 66
0 19 -1 19 -51 -1 l-51 -22 4 -123 c3 -82 0 -123 -7 -123 -23 0 -33 18 -39 71
l-7 57 -35 -11 c-26 -8 -33 -15 -28 -26 16 -38 15 -53 -1 -71 -29 -33 -72 -26
-116 19 -22 21 -39 46 -39 55 0 23 15 20 29 -8 18 -32 56 -49 82 -36 25 14 24
19 -8 52 -20 20 -23 29 -12 32 8 3 40 12 72 21 54 15 57 17 57 46 0 24 -4 30
-15 25 -33 -12 -122 -36 -167 -45 -45 -8 -48 -7 -48 13 0 19 9 24 61 35 182
37 459 162 609 274 82 61 85 62 88 39 2 -13 -1 -29 -7 -35z m-1746 -152 c242
-116 525 -175 778 -162 99 5 107 4 107 -13 0 -10 -7 -20 -15 -24 -12 -4 -15
-27 -15 -120 0 -100 -2 -115 -16 -109 -8 3 -18 18 -21 34 -5 27 -8 28 -44 23
-33 -6 -42 -3 -69 24 -37 37 -38 66 -5 88 24 16 60 16 98 -1 14 -6 17 -2 17
24 l0 31 -74 0 c-41 0 -81 3 -90 6 -14 5 -16 -9 -16 -115 0 -69 -4 -121 -9
-121 -18 0 -41 44 -41 77 0 32 -1 33 -45 33 -33 0 -45 -4 -45 -14 0 -28 -21
-27 -50 3 -35 35 -40 71 -10 71 16 0 20 7 20 33 0 42 -9 53 -47 62 l-33 7 0
-126 c0 -69 -4 -126 -9 -126 -14 0 -41 47 -41 73 0 20 -4 23 -30 19 -24 -3
-36 2 -62 30 -18 19 -41 46 -50 60 -20 29 -90 52 -107 35 -19 -19 -12 -63 19
-108 36 -53 41 -82 9 -53 -30 27 -79 128 -79 163 0 67 26 76 118 41 68 -26 82
-25 82 4 0 20 -12 27 -97 58 -54 20 -106 39 -115 43 -17 7 -18 -3 -18 -134 0
-78 -3 -141 -6 -141 -19 0 -33 41 -34 96 0 59 -1 62 -30 74 -17 7 -40 26 -52
43 l-22 31 -12 -29 c-11 -27 -8 -37 22 -97 37 -74 39 -78 24 -78 -25 0 -128
254 -116 286 6 16 8 16 25 0 13 -12 21 -14 26 -6 11 19 -5 62 -31 82 -13 11
-24 30 -24 44 0 23 2 22 63 -22 34 -25 112 -70 172 -99z m485 -20 c30 -16 100
-95 100 -114 0 -21 -15 -11 -43 29 -22 31 -35 40 -57 40 -26 0 -60 29 -60 52
0 13 29 9 60 -7z"/>
<path d="M15801 10671 c-31 -15 -33 -18 -28 -55 5 -32 1 -42 -19 -61 -30 -28
-30 -35 0 -35 28 0 73 40 81 73 4 13 5 40 3 59 l-3 35 -34 -16z"/>
<path d="M14230 10705 c0 -49 22 -78 67 -90 33 -8 36 -4 28 44 -6 34 -13 44
-51 65 l-44 25 0 -44z"/>
<path d="M14631 10546 c11 -42 6 -56 -22 -56 -24 0 -24 -12 -1 -33 21 -19 45
-21 73 -7 15 8 19 21 19 60 0 54 -1 55 -47 64 l-32 7 10 -35z"/>
<path d="M14872 10484 l3 -49 43 -3 42 -3 0 45 c0 32 -4 46 -14 46 -7 0 -28 3
-45 6 l-32 7 3 -49z"/>
<path d="M15102 10418 c-20 -20 -14 -38 12 -38 37 0 76 18 76 35 0 19 -70 21
-88 3z"/>
<path d="M14944 13655 c-8 -13 -14 -34 -12 -47 3 -23 4 -23 176 -26 l172 -2 0
39 c0 55 -19 68 -72 47 -52 -21 -149 -22 -206 -2 -41 15 -42 15 -58 -9z"/>
<path d="M15000 13389 c0 -4 -29 -11 -66 -14 -80 -9 -94 -21 -87 -75 6 -43
-21 -120 -41 -120 -33 2 -105 28 -131 48 -31 24 -41 24 -108 -1 -44 -16 -60
-29 -101 -82 -16 -20 -43 -43 -62 -51 -26 -11 -35 -22 -40 -49 -3 -19 -13 -40
-21 -46 -37 -32 -56 -105 -28 -115 8 -3 17 -14 20 -24 3 -11 14 -22 24 -25 11
-3 24 -18 30 -33 18 -40 68 -92 90 -92 11 0 29 10 41 22 l20 22 0 -27 c0 -14
-4 -29 -10 -32 -5 -3 -10 -13 -10 -22 0 -9 -7 -24 -16 -34 -19 -22 -33 -192
-15 -203 6 -4 11 -18 11 -30 0 -13 14 -40 30 -61 17 -21 30 -44 30 -51 0 -8 9
-19 20 -26 11 -7 20 -21 20 -31 0 -10 5 -15 10 -12 6 3 10 17 10 31 0 14 4 22
10 19 6 -3 10 -19 10 -36 0 -21 -5 -29 -17 -29 -13 0 -14 -3 -5 -12 7 -7 12
-33 12 -59 0 -26 7 -82 16 -124 13 -61 14 -86 5 -120 -6 -24 -11 -65 -11 -90
0 -65 -15 -89 -49 -82 -25 5 -28 4 -23 -19 4 -23 5 -23 18 -7 11 15 16 16 33
6 28 -17 66 -16 81 2 13 15 5 20 -27 16 -30 -4 -20 138 17 234 8 20 9 65 4
138 l-7 108 40 37 c22 20 43 45 46 55 8 21 32 18 32 -4 1 -8 6 -24 13 -36 6
-12 10 -36 7 -55 l-5 -33 12 32 c14 35 28 52 28 36 0 -7 15 -9 38 -6 34 5 42
1 64 -26 l26 -30 15 22 c14 22 15 22 36 3 12 -11 19 -27 16 -35 -3 -9 -7 -59
-9 -112 -5 -147 -45 -195 -47 -56 0 40 -4 81 -9 92 -14 31 -12 -119 1 -152 13
-32 22 -150 13 -173 -5 -12 -8 -11 -15 5 -6 13 -6 7 -2 -20 3 -22 10 -42 14
-43 5 -2 7 -8 4 -13 -4 -5 0 -7 7 -4 9 4 13 28 11 88 l-1 82 8 -64 c5 -35 11
-66 14 -68 2 -3 5 33 4 79 0 45 4 139 9 207 9 134 11 139 71 124 20 -5 22 -11
22 -77 1 -39 9 -111 18 -160 l18 -89 17 99 c10 54 17 117 16 139 -2 40 -4 33
-15 -52 -3 -24 -9 -43 -13 -43 -12 0 -21 34 -30 124 -5 46 -14 82 -22 87 -18
11 -5 21 31 24 26 2 30 -1 30 -24 0 -14 5 -33 11 -41 8 -11 9 -1 4 38 -5 46
-4 52 13 52 10 0 27 9 37 20 26 28 55 26 55 -4 0 -17 5 -23 18 -22 15 1 17
-10 16 -114 -2 -98 0 -107 7 -60 5 30 10 94 11 143 1 48 4 87 6 87 2 0 24 -21
50 -46 43 -43 47 -51 53 -113 4 -36 6 -95 4 -131 l-4 -65 9 55 c6 30 9 86 8
124 -2 47 1 71 9 73 20 7 26 -42 20 -151 -4 -78 -3 -96 6 -81 6 11 13 66 15
123 2 56 8 102 12 102 5 0 11 13 15 30 4 16 10 32 15 35 11 7 40 64 40 78 0 6
8 19 17 29 18 20 43 80 48 113 1 11 7 32 13 47 15 36 -3 148 -34 214 -13 28
-24 54 -24 58 0 15 22 -7 30 -30 14 -37 51 -31 86 12 16 20 55 62 87 94 31 31
57 66 57 77 0 10 -13 37 -30 59 -18 24 -30 51 -30 71 0 37 -25 58 -81 68 -29
5 -38 13 -48 41 -15 41 -74 84 -116 84 -32 0 -95 -33 -95 -49 0 -10 -62 -31
-92 -31 -11 0 -18 8 -18 19 0 10 -7 24 -15 31 -8 7 -15 29 -16 49 0 20 -10 56
-22 81 -19 39 -27 45 -57 48 -19 1 -42 5 -50 9 -23 9 -240 11 -240 2z m167
-24 c5 -14 7 -14 24 1 17 15 45 11 35 -5 -3 -4 14 -7 37 -7 34 1 42 -3 45 -19
3 -11 9 -23 15 -27 6 -4 12 -28 13 -53 1 -27 9 -54 19 -65 12 -13 16 -30 13
-55 -2 -19 0 -35 5 -35 15 0 3 -130 -13 -140 -10 -6 -14 -24 -12 -54 1 -39 -3
-50 -33 -81 -19 -20 -39 -34 -45 -30 -5 3 -10 -1 -10 -9 0 -27 -42 -44 -103
-44 -31 1 -60 -2 -64 -5 -10 -10 -44 13 -53 36 -8 21 -9 20 -9 -5 -1 -37 -24
-36 -50 1 -27 37 -27 60 -1 58 11 -1 20 -5 20 -10 0 -5 11 -7 25 -5 14 3 28 1
31 -4 3 -4 10 -6 15 -3 5 4 9 1 9 -6 0 -8 4 -8 15 1 8 7 15 10 15 7 0 -3 3
-14 6 -24 5 -15 4 -15 -5 -3 -9 13 -11 13 -11 -2 0 -19 25 -24 35 -8 4 6 2 17
-5 25 -9 11 -3 13 39 11 32 -2 48 1 44 7 -4 6 0 8 10 4 12 -4 17 -1 17 11 1
15 2 15 15 -2 17 -23 20 -14 4 15 -9 17 -6 25 18 47 15 14 27 30 26 34 -2 4 1
8 6 8 5 0 7 9 4 19 -5 18 -6 18 -34 3 -16 -10 -29 -20 -29 -24 0 -5 -7 -8 -15
-8 -8 0 -15 -5 -15 -12 0 -6 -7 -20 -17 -30 -18 -21 -58 -25 -47 -5 6 10 4 10
-7 0 -7 -7 -21 -13 -31 -13 -10 0 -18 6 -18 13 0 9 -2 9 -9 -1 -12 -20 -54
-10 -67 15 -6 13 -14 20 -18 15 -4 -4 -13 1 -20 10 -13 18 -66 36 -66 22 1
-29 14 -52 26 -47 8 3 14 0 14 -7 0 -6 5 -8 10 -5 20 12 10 -24 -14 -49 -29
-32 -43 -33 -52 -3 -4 12 -18 37 -32 55 -26 34 -24 39 9 22 28 -16 23 -2 -11
27 -16 13 -30 32 -30 41 0 24 46 43 75 32 23 -9 24 -7 19 19 -4 16 -1 32 5 35
17 11 14 19 -20 57 -29 31 -31 32 -25 9 19 -71 19 -81 0 -95 -11 -8 -29 -15
-41 -15 -20 0 -22 4 -16 30 4 21 2 30 -7 30 -9 0 -11 -14 -8 -50 5 -54 -4 -72
-21 -43 -10 17 -10 17 -11 1 0 -9 -7 -21 -16 -26 -11 -6 -13 -11 -5 -16 6 -4
14 0 17 8 9 24 20 19 34 -14 15 -36 6 -50 -17 -27 -15 14 -18 15 -28 1 -10
-14 -15 -13 -47 6 -39 23 -51 41 -42 65 8 19 9 19 39 -1 16 -11 25 -12 25 -5
0 6 -8 15 -17 18 -27 11 -53 42 -47 57 3 8 1 23 -6 33 -10 16 -10 15 -5 -4 4
-14 2 -23 -5 -23 -7 0 -8 -6 0 -19 17 -32 13 -54 -10 -48 -18 5 -18 4 -3 -20
15 -23 15 -26 -7 -55 -12 -17 -17 -29 -9 -26 10 3 19 15 36 47 1 1 18 -9 37
-24 23 -17 43 -25 56 -22 11 3 32 0 46 -6 24 -11 25 -15 21 -65 -3 -29 -10
-59 -16 -65 -17 -22 -40 -102 -54 -188 -12 -76 -14 -82 -26 -61 -7 12 -9 31
-6 42 3 10 1 21 -5 25 -15 9 -12 35 5 35 18 0 19 9 4 30 -8 11 -12 12 -16 3
-2 -7 -11 -13 -19 -13 -17 0 -17 -5 -1 -31 10 -17 9 -23 -9 -38 -16 -13 -19
-22 -13 -34 7 -12 4 -22 -9 -35 -17 -17 -17 -20 -3 -29 12 -9 14 -15 5 -29
-15 -25 -38 -31 -30 -8 4 14 -2 24 -24 36 -30 17 -39 41 -19 53 6 4 16 -1 23
-11 10 -13 15 -14 21 -5 4 7 -2 22 -14 35 -27 29 -27 48 2 46 40 -4 41 0 12
30 -23 24 -26 33 -17 42 10 10 17 10 32 0 26 -16 26 0 0 23 -11 10 -20 24 -20
31 0 15 35 28 50 19 5 -3 10 -2 10 2 0 5 -9 14 -19 20 -15 10 -20 9 -25 -2 -3
-8 -15 -15 -28 -15 -17 0 -19 -3 -10 -12 20 -20 15 -59 -8 -65 -19 -5 -19 -7
-4 -17 23 -17 14 -50 -14 -54 -23 -4 -23 -4 -5 -24 17 -19 17 -20 -3 -37 -11
-9 -18 -23 -16 -30 3 -8 -3 -18 -12 -23 -13 -8 -15 -13 -5 -24 14 -17 5 -44
-15 -44 -9 0 -13 6 -10 13 2 7 -2 26 -10 42 -17 33 -14 44 8 26 22 -19 28 4 6
24 -21 19 -27 55 -10 55 5 0 13 -8 19 -17 5 -10 13 -15 16 -11 4 4 -2 22 -14
41 -34 56 -24 89 14 47 27 -30 29 -18 4 24 -24 41 -19 57 12 37 29 -17 39 -2
12 16 -24 16 -32 66 -13 78 14 9 42 -14 33 -28 -3 -6 -1 -7 5 -3 19 12 13 39
-13 65 -14 13 -25 29 -25 36 0 23 20 28 41 9 29 -27 23 -6 -11 33 -37 42 -41
69 -7 51 12 -7 25 -17 29 -23 4 -5 8 0 8 12 0 15 -7 23 -22 25 -13 2 -24 11
-26 22 -3 14 0 17 12 13 10 -4 16 -1 16 7 0 8 -10 16 -22 20 -22 6 -22 7 10
26 22 13 32 27 31 42 l-2 23 -4 -23 c-4 -23 -47 -51 -59 -39 -4 3 1 14 10 23
22 22 16 35 -22 48 -17 6 -36 16 -43 22 -14 15 -2 54 17 54 8 0 14 5 14 11 0
6 8 8 18 5 10 -4 27 1 38 9 32 24 61 18 78 -17 9 -17 16 -37 16 -45 0 -8 5
-11 10 -8 7 4 7 13 0 26 -9 16 -7 19 9 19 30 0 51 -11 51 -26 0 -8 4 -14 9
-14 4 0 20 -11 35 -25 18 -17 26 -20 26 -10 0 8 7 15 15 15 8 0 15 -9 15 -19
0 -11 5 -23 10 -26 19 -12 10 32 -10 50 -22 20 -26 55 -9 86 8 16 14 18 24 9
10 -9 13 -3 12 29 -1 21 -6 37 -10 34 -5 -3 -7 8 -5 23 2 22 9 30 28 32 14 2
31 8 37 14 7 6 20 7 29 4 9 -4 23 -1 30 5 11 9 18 8 29 -1 10 -8 15 -9 15 -1
0 7 18 10 50 8 28 -2 50 0 50 5 0 14 20 9 27 -7z m474 -165 c10 -6 19 -18 19
-27 0 -9 3 -14 6 -10 11 11 36 -23 31 -42 -3 -14 2 -20 22 -24 45 -9 103 -33
112 -48 5 -8 9 -24 9 -36 0 -12 11 -35 25 -51 26 -31 33 -66 15 -77 -5 -3 -15
3 -22 15 -7 11 -22 20 -33 19 -20 0 -20 0 0 -9 25 -10 50 -38 41 -47 -3 -3
-16 2 -27 13 -22 19 -22 19 -10 -3 15 -29 14 -38 -3 -24 -12 10 -13 8 -9 -8 4
-16 1 -21 -13 -21 -12 0 -15 -3 -7 -8 8 -5 6 -14 -8 -31 -17 -20 -21 -22 -36
-10 -15 13 -16 11 -9 -14 11 -45 -17 -44 -63 2 -28 28 -41 50 -41 69 -1 23 -2
24 -11 9 -5 -9 -23 -24 -39 -32 -20 -11 -27 -20 -23 -31 4 -12 2 -15 -8 -12
-24 8 -21 43 6 68 14 13 25 29 25 36 0 16 28 27 61 25 14 -1 31 5 39 14 11 13
9 15 -11 13 -22 -3 -24 1 -24 37 0 40 0 40 37 39 21 -1 35 3 32 7 -3 5 -18 9
-34 9 -40 0 -52 36 -20 60 l23 17 -27 5 c-33 7 -39 -2 -31 -45 6 -29 3 -36
-19 -51 -14 -9 -26 -22 -26 -28 0 -6 8 -4 18 5 27 25 35 21 28 -15 -8 -41 -21
-55 -58 -63 -22 -5 -27 -10 -19 -18 17 -17 13 -27 -9 -27 -24 0 -36 39 -21 67
7 15 19 19 43 17 18 -2 25 -1 15 2 -10 3 -22 16 -27 29 -7 17 -14 22 -29 18
-16 -4 -21 -1 -21 13 0 17 -1 16 -14 -2 -13 -17 -12 -20 4 -26 45 -17 34 -45
-22 -57 -18 -4 -32 -13 -30 -19 3 -15 -11 -15 -25 -1 -8 8 -15 2 -27 -22 -15
-31 -15 -32 2 -16 33 30 43 -6 17 -57 -19 -36 -19 -42 0 -26 23 19 30 4 17
-33 -16 -44 -15 -55 2 -31 22 30 31 8 13 -31 -18 -38 -37 -46 -37 -17 0 10 -7
27 -15 38 -8 10 -15 30 -15 42 0 13 -7 39 -15 56 -13 27 -14 41 -5 77 6 24 16
63 21 87 8 33 15 42 32 42 l21 0 -22 16 c-26 18 -28 34 -4 35 16 1 16 2 0 6
-28 7 -21 28 18 63 29 25 42 30 65 25 24 -6 30 -3 38 18 17 43 69 60 112 37z
m-833 -42 c7 -7 12 -18 12 -25 0 -10 -6 -10 -25 3 -14 9 -25 20 -25 25 0 13
24 11 38 -3z m-248 -95 c0 -8 -7 -16 -15 -19 -13 -5 -12 -9 3 -29 15 -18 18
-39 17 -97 -3 -119 -4 -128 -18 -128 -7 0 -23 -13 -37 -30 -31 -38 -64 -41
-58 -6 4 19 1 23 -11 18 -9 -3 -13 -1 -9 3 5 5 -2 13 -15 20 -14 7 -21 19 -20
34 2 13 -1 20 -7 16 -6 -3 -10 -1 -10 5 0 6 -4 8 -10 5 -5 -3 -12 5 -16 19 -3
13 -12 27 -20 30 -23 9 -16 40 15 75 17 19 31 45 33 60 2 18 13 31 37 43 19 9
41 24 49 31 12 13 19 11 53 -11 21 -14 39 -32 39 -39z m948 -186 c4 -18 -51
-80 -62 -70 -12 12 -6 57 11 75 20 22 46 20 51 -5z m22 -62 c0 -8 -9 -20 -20
-27 -26 -16 -26 -31 0 -23 31 10 37 -21 9 -44 l-24 -20 43 11 c28 7 42 16 42
27 0 21 19 41 38 41 10 0 12 -6 7 -17 -18 -45 -18 -53 4 -53 15 0 21 -6 21
-23 0 -13 5 -28 12 -35 17 -17 -4 -15 -28 2 -10 8 -16 18 -12 22 5 4 -2 13
-15 19 -19 10 -26 8 -49 -13 -16 -14 -28 -31 -28 -38 0 -8 11 -3 26 11 15 14
31 25 35 25 17 0 9 -36 -11 -53 -23 -20 -26 -37 -6 -37 7 0 16 9 19 20 3 12
14 20 25 20 32 0 34 -15 7 -44 -14 -15 -25 -31 -25 -36 0 -18 -50 16 -61 42
-6 15 -17 29 -25 32 -8 3 -14 12 -14 20 0 9 -12 40 -26 70 l-26 55 23 30 c24
32 59 42 59 16z m-630 -43 c0 -11 -9 -27 -20 -37 -18 -16 -20 -16 -26 -1 -4
10 1 25 11 36 23 25 35 25 35 2z m454 -18 c3 -9 3 -20 0 -26 -3 -5 4 -16 15
-25 14 -9 20 -21 16 -33 -3 -10 -1 -21 5 -25 5 -3 10 -15 10 -26 0 -17 -11
-24 -33 -20 -5 1 -11 -8 -14 -19 -6 -23 -23 -27 -23 -5 0 8 -4 15 -10 15 -5 0
-10 17 -10 38 0 21 -5 43 -12 50 -9 9 -7 13 8 18 26 10 34 25 24 45 -9 16 -4
29 11 29 4 0 10 -7 13 -16z m-404 -27 c0 -20 -32 -47 -55 -47 -14 0 -2 34 18
51 29 24 37 24 37 -4z m348 1 c-5 -32 -28 -35 -28 -4 0 17 5 26 16 26 10 0 14
-7 12 -22z m-458 -22 c-14 -14 -24 0 -16 21 6 15 8 15 16 3 6 -9 5 -19 0 -24z
m190 7 c-1 -23 -57 -86 -70 -78 -17 10 -11 32 16 64 29 34 54 41 54 14z m68
-21 c2 -14 -7 -28 -27 -43 -17 -13 -31 -29 -31 -36 0 -15 -16 -17 -25 -3 -10
17 15 79 38 95 27 19 41 15 45 -13z m80 7 c9 -11 25 -30 35 -41 20 -24 19 -22
11 -42 -7 -19 -36 -22 -32 -3 1 6 -12 26 -30 44 -34 33 -42 63 -17 63 8 0 23
-9 33 -21z m87 -13 c35 -29 38 -36 26 -50 -12 -14 -11 -19 3 -34 20 -23 21
-48 1 -56 -11 -4 -19 3 -26 21 -5 14 -12 23 -16 20 -7 -8 24 -57 37 -57 16 0
11 -38 -6 -48 -12 -7 -13 -11 -5 -17 7 -4 21 1 31 10 18 16 19 15 35 -15 11
-21 13 -36 7 -42 -7 -7 -14 -3 -21 11 -13 24 -31 28 -31 7 0 -7 -7 -19 -15
-26 -11 -9 -12 -16 -4 -26 6 -7 8 -17 5 -23 -10 -15 -66 41 -66 66 0 29 14 29
28 1 8 -17 11 -18 11 -7 1 9 -6 22 -14 29 -8 7 -15 22 -16 34 0 21 0 21 -9 -1
-5 -13 -17 -23 -27 -23 -17 -1 -17 -1 0 -14 24 -19 21 -41 -9 -61 -32 -20 -51
-14 -66 22 -9 22 -12 24 -15 11 -6 -23 -59 -79 -67 -71 -13 13 -5 36 23 64 35
34 45 35 89 9 26 -16 32 -17 32 -5 0 8 -12 18 -26 21 -14 4 -34 19 -43 35
l-17 28 -25 -39 c-13 -22 -28 -38 -34 -36 -16 5 -8 66 11 80 15 12 15 13 -7
12 -19 -1 -25 5 -27 27 -2 18 2 29 13 33 9 4 21 17 26 30 4 13 16 24 25 24 10
0 26 8 36 17 18 16 21 15 63 -30 49 -51 52 -59 30 -77 -11 -9 -13 -16 -5 -24
17 -17 28 5 34 69 3 33 5 61 6 63 0 2 5 0 10 -3 6 -3 10 -1 10 4 0 6 -6 11
-13 11 -19 0 -50 37 -42 49 10 16 16 14 60 -23z m-408 -34 c-18 -20 -63 -23
-61 -4 3 33 4 35 18 23 10 -9 16 -8 26 4 9 11 16 13 23 6 7 -7 5 -16 -6 -29z
m623 -1 c0 -10 -7 -24 -15 -31 -8 -7 -15 -22 -15 -34 0 -30 -15 -52 -25 -36
-8 12 11 85 28 108 14 18 27 15 27 -7z m-544 -6 c5 -13 -40 -64 -58 -65 -14 0
-9 35 8 58 17 25 42 29 50 7z m-130 -52 c-10 -10 -19 5 -10 18 6 11 8 11 12 0
2 -7 1 -15 -2 -18z m189 16 c4 -5 -1 -19 -11 -30 -17 -19 -17 -20 4 -40 27
-25 28 -45 2 -61 -11 -7 -20 -21 -20 -31 0 -11 -6 -17 -12 -15 -22 7 -21 49 1
78 20 28 20 28 1 33 -35 9 -20 77 16 77 7 0 16 -5 19 -11z m501 -9 c-3 -11 -9
-29 -12 -40 -4 -11 -2 -20 4 -20 6 0 14 9 17 20 3 11 11 20 16 20 18 0 21 -29
5 -61 -9 -18 -16 -38 -16 -46 0 -8 -4 -11 -10 -8 -5 3 -10 0 -10 -8 0 -8 -9
-22 -20 -32 -12 -10 -18 -25 -15 -33 3 -7 -2 -20 -11 -29 -8 -8 -18 -28 -21
-44 -3 -16 -8 -29 -12 -30 -42 -8 -71 -5 -71 7 0 19 21 29 30 14 6 -9 11 -7
19 8 6 11 11 27 11 36 0 8 6 21 13 28 18 17 29 76 17 83 -6 3 -10 0 -10 -8 0
-8 -9 -24 -20 -37 l-20 -23 -9 24 c-10 27 6 40 20 18 7 -11 9 -9 9 6 -1 11 -7
29 -15 39 -15 19 -12 36 6 36 5 0 14 -10 19 -22 l9 -23 0 23 c1 12 -4 22 -11
22 -20 0 1 13 26 16 14 1 27 -4 30 -12 3 -8 11 -14 17 -14 8 0 6 7 -4 18 -27
29 -20 92 10 92 11 0 13 -6 9 -20z m-646 -14 c0 -24 -16 -43 -27 -32 -8 8 6
56 17 56 6 0 10 -11 10 -24z m820 -6 c0 -12 -8 -33 -17 -48 l-17 -27 26 23
c15 14 29 19 32 14 7 -12 -3 -42 -14 -42 -5 0 -12 -10 -15 -21 -7 -21 -8 -21
-31 7 -29 36 -29 40 -1 81 25 38 37 42 37 13z m-263 -16 c8 -22 -15 -43 -27
-24 -5 8 -10 21 -10 28 0 17 30 15 37 -4z m-597 -14 c0 -11 -4 -20 -10 -20 -5
0 -10 9 -10 20 0 11 5 20 10 20 6 0 10 -9 10 -20z m120 -4 c0 -8 -7 -21 -15
-30 -8 -8 -15 -20 -15 -26 0 -17 -24 -6 -28 12 -3 16 34 58 50 58 4 0 8 -6 8
-14z m429 -14 c5 -10 6 -24 1 -31 -6 -10 -12 -9 -29 8 -11 11 -21 26 -21 31 0
17 39 11 49 -8z m221 -21 c0 -16 -7 -34 -15 -41 -8 -7 -15 -27 -15 -44 l-1
-31 -14 33 c-13 31 -13 37 5 73 24 46 40 50 40 10z m-844 -47 c-6 -16 -52 -19
-62 -3 -3 6 1 10 12 9 32 -4 35 -1 24 20 -6 11 -8 25 -4 32 9 15 37 -39 30
-58z m124 54 c0 -7 -9 -24 -20 -38 -19 -24 -20 -24 -20 -3 0 12 3 28 6 37 7
19 34 22 34 4z m-52 -26 c2 -7 -3 -12 -12 -12 -9 0 -16 7 -16 16 0 17 22 14
28 -4z m812 -31 c0 -11 -4 -23 -10 -26 -5 -3 -10 -17 -10 -31 0 -29 -16 -32
-25 -4 -7 21 19 80 35 80 6 0 10 -9 10 -19z m-704 -32 c-3 -17 -1 -29 7 -32
15 -5 -2 -58 -20 -65 -17 -5 -17 30 -1 46 9 9 8 12 -6 12 -15 0 -16 5 -11 33
9 41 14 49 27 41 5 -4 7 -19 4 -35z m-46 18 c0 -8 -9 -22 -20 -32 -19 -18 -20
-17 -20 7 0 13 3 28 7 31 11 12 33 8 33 -6z m-100 -17 c0 -12 -7 -20 -17 -20
-17 -1 -17 -1 0 -11 19 -11 24 -59 6 -59 -8 0 -8 -4 0 -14 15 -18 -2 -56 -25
-56 -11 0 -13 7 -8 28 4 15 11 31 15 37 15 16 11 48 -6 41 -9 -3 -15 0 -15 10
0 8 -7 17 -15 20 -21 9 -19 24 4 24 11 0 23 5 26 10 11 18 35 11 35 -10z m31
7 c-1 -4 -1 -14 -1 -23 0 -8 -4 -12 -10 -9 -13 8 -13 48 1 43 6 -2 10 -7 10
-11z m209 -29 c0 -10 -13 -24 -30 -33 -27 -14 -30 -14 -30 1 0 9 10 29 21 46
17 23 24 27 30 16 5 -7 9 -21 9 -30z m650 13 c0 -10 -7 -24 -15 -31 -11 -9
-12 -16 -5 -25 8 -9 8 -15 0 -20 -29 -18 -42 41 -15 69 8 8 15 20 15 26 0 6 5
8 10 5 6 -3 10 -14 10 -24z m-1045 -8 c26 -30 33 -73 12 -73 -7 0 -17 -10 -22
-22 -6 -12 -17 -24 -25 -26 -13 -5 -13 -3 -1 12 12 14 11 20 -8 40 -24 26 -18
41 10 23 25 -16 36 -1 16 21 -16 18 -23 52 -12 52 3 0 17 -12 30 -27z m902 2
c3 -9 -2 -24 -12 -35 -9 -10 -14 -24 -10 -30 4 -7 13 -4 25 10 9 11 20 20 24
20 10 0 7 -38 -4 -45 -5 -3 -10 -17 -10 -31 0 -31 -18 -31 -26 0 -3 14 -12 27
-20 30 -8 3 -14 19 -14 39 0 47 33 77 47 42z m-172 -25 c4 -6 4 -18 1 -26 -5
-12 -9 -12 -26 -2 -11 7 -20 18 -20 25 0 16 36 17 45 3z m-465 -20 c0 -11 -7
-23 -15 -27 -21 -8 -28 1 -20 26 8 27 35 27 35 1z m508 -8 c2 -12 -1 -22 -7
-22 -6 0 -11 4 -11 9 0 5 -3 17 -7 27 -4 12 -2 15 8 12 8 -2 15 -14 17 -26z
m-686 1 c22 -20 23 -41 1 -65 -15 -17 -15 -19 2 -32 20 -14 13 -36 -12 -36
-10 0 -13 6 -9 16 4 12 2 15 -9 10 -8 -3 -15 -2 -15 3 0 5 -3 24 -6 42 -6 28
-4 32 7 22 7 -7 17 -13 21 -13 14 0 9 27 -7 40 -8 7 -15 16 -15 21 0 14 22 10
42 -8z m460 -21 c9 -8 14 -20 11 -28 -8 -21 -22 -17 -33 11 -8 20 -13 23 -32
16 -15 -5 -24 -18 -26 -35 -4 -29 -26 -35 -36 -9 -4 10 -1 20 9 25 8 5 15 15
15 22 0 7 10 18 23 23 22 11 28 8 69 -25z m-334 4 c3 -12 -1 -17 -10 -14 -7 3
-15 13 -16 22 -3 12 1 17 10 14 7 -3 15 -13 16 -22z m182 11 c0 -8 -9 -22 -20
-32 -11 -10 -20 -24 -20 -32 0 -8 -4 -11 -10 -8 -15 9 -12 45 5 51 8 4 15 12
15 20 0 8 7 14 15 14 8 0 15 -6 15 -13z m249 -34 c8 -23 11 -46 7 -50 -12 -12
-46 36 -47 66 l-1 26 -7 -25 -7 -25 -12 22 c-10 18 -9 22 6 26 34 9 45 2 61
-40z m202 -7 c-7 -9 -10 -24 -6 -37 5 -15 4 -19 -5 -14 -7 4 -16 2 -20 -5 -4
-7 -13 -9 -19 -6 -15 10 -14 26 2 26 7 0 19 16 26 36 9 25 16 33 24 25 7 -7 6
-15 -2 -25z m125 -11 c-9 -13 -13 -32 -9 -41 4 -12 2 -15 -8 -12 -24 8 -22 48
2 75 28 28 38 13 15 -22z m-257 10 c2 -10 -5 -25 -15 -32 -24 -17 -34 -16 -34
3 0 10 5 14 15 10 12 -4 14 0 9 21 -5 19 -3 24 7 21 8 -3 16 -13 18 -23z
m-449 -2 c0 -10 -4 -25 -10 -33 -8 -12 -10 -12 -16 3 -7 20 1 47 16 47 5 0 10
-8 10 -17z m44 -21 c-7 -35 -18 -41 -28 -16 -4 10 1 25 10 36 22 23 26 19 18
-20z m81 -26 c-9 -14 -14 -30 -10 -36 3 -5 -1 -10 -10 -10 -34 0 -28 46 12 86
16 16 18 16 21 1 2 -9 -4 -27 -13 -41z m-165 24 c0 -11 -4 -20 -10 -20 -5 0
-10 9 -10 20 0 11 5 20 10 20 6 0 10 -9 10 -20z m270 -5 c0 -8 -8 -23 -18 -33
-10 -10 -22 -26 -25 -36 -4 -9 -11 -14 -17 -11 -19 12 -10 40 22 67 39 32 38
32 38 13z m98 -9 c5 -21 -16 -38 -37 -30 -11 3 -10 -1 3 -15 10 -11 15 -25 11
-30 -9 -15 -28 -14 -23 1 3 7 -5 17 -16 23 -12 6 -22 22 -24 38 -4 31 4 34 30
10 17 -15 18 -15 18 6 0 28 33 25 38 -3z m292 0 c0 -8 -4 -18 -10 -21 -22 -14
-8 -23 25 -18 l35 6 -6 -34 c-4 -19 -8 -36 -10 -38 -7 -8 -24 12 -24 30 0 12
-7 19 -19 19 -23 0 -31 18 -20 48 9 25 29 30 29 8z m-260 -6 c0 -5 -4 -10 -10
-10 -5 0 -10 5 -10 10 0 6 5 10 10 10 6 0 10 -4 10 -10z m212 -35 c0 -5 -5
-11 -11 -13 -6 -2 -11 4 -11 13 0 9 5 15 11 13 6 -2 11 -8 11 -13z m-207 -5
c3 -5 2 -10 -4 -10 -5 0 -13 5 -16 10 -3 6 -2 10 4 10 5 0 13 -4 16 -10z
m-125 -19 c0 -20 -17 -37 -27 -28 -7 8 7 47 18 47 5 0 9 -9 9 -19z m-446 -17
c10 -25 7 -184 -3 -184 -13 0 -27 106 -23 173 2 30 16 36 26 11z m816 -4 c0
-5 -4 -10 -10 -10 -5 0 -10 5 -10 10 0 6 5 10 10 10 6 0 10 -4 10 -10z"/>
<path d="M15037 13311 c-3 -12 -1 -21 3 -21 15 0 23 21 12 32 -6 6 -11 2 -15
-11z"/>
<path d="M15086 13321 c-4 -7 -5 -15 -2 -18 9 -9 19 4 14 18 -4 11 -6 11 -12
0z"/>
<path d="M15125 13310 c-3 -5 -1 -10 4 -10 6 0 11 5 11 10 0 6 -2 10 -4 10 -3
0 -8 -4 -11 -10z"/>
<path d="M15010 13302 c0 -7 -12 -10 -30 -8 -24 3 -30 0 -30 -15 0 -16 3 -17
28 -7 35 15 47 26 39 35 -4 3 -7 1 -7 -5z"/>
<path d="M15195 13301 c-2 -5 4 -11 15 -14 11 -3 20 -2 20 3 0 12 -28 21 -35
11z"/>
<path d="M15271 13297 c2 -1 13 -9 24 -17 19 -14 19 -14 6 3 -7 9 -18 17 -24
17 -6 0 -8 -1 -6 -3z"/>
<path d="M15277 13245 c20 -28 33 -32 33 -10 0 8 -9 19 -19 25 -30 16 -34 12
-14 -15z"/>
<path d="M15027 13240 c23 -9 51 -50 34 -50 -5 0 -11 7 -15 15 -3 8 -17 15
-31 15 -17 0 -24 4 -19 12 4 7 3 8 -5 4 -6 -4 -9 -11 -6 -16 3 -5 -5 -16 -17
-24 -13 -10 -17 -16 -9 -16 8 0 22 7 32 16 17 15 20 15 44 -4 14 -11 22 -23
17 -26 -5 -3 -7 -19 -4 -36 10 -67 132 -71 132 -5 0 9 6 15 13 12 6 -2 11 -17
10 -32 -3 -33 12 -22 21 17 6 24 3 27 -26 30 -42 4 -47 27 -15 64 23 26 27 27
53 16 27 -11 27 -11 10 3 -28 22 -44 19 -77 -15 -25 -24 -28 -33 -19 -49 5
-11 10 -26 10 -34 0 -19 -38 -29 -62 -16 -15 8 -17 17 -12 48 5 31 2 43 -15
60 -12 12 -31 21 -43 20 l-23 0 22 -9z"/>
<path d="M14918 13224 c-5 -4 -8 -16 -8 -28 0 -14 3 -17 11 -9 6 6 9 19 7 28
-1 9 -6 13 -10 9z"/>
<path d="M15202 13204 c-12 -8 -22 -20 -22 -26 0 -6 9 -3 19 6 13 11 27 15 40
11 26 -8 27 1 3 14 -14 7 -25 6 -40 -5z"/>
<path d="M15319 13154 c8 -18 5 -26 -20 -50 -30 -28 -31 -28 -45 -10 -12 17
-14 18 -14 3 0 -9 5 -17 10 -17 18 0 10 -29 -12 -44 -12 -9 -17 -16 -10 -16 7
0 20 9 29 20 28 32 47 26 40 -12 -5 -30 -5 -31 5 -8 5 14 16 40 24 58 18 42
18 54 -2 78 -15 18 -15 18 -5 -2z"/>
<path d="M15000 13146 c14 -8 19 -15 13 -16 -7 0 -20 -15 -29 -32 -9 -18 -13
-30 -9 -25 5 4 18 -1 29 -10 l21 -18 -19 23 c-15 17 -17 25 -8 34 8 8 16 6 29
-8 10 -11 14 -14 9 -7 -4 7 -6 24 -4 38 4 16 1 25 -8 25 -7 0 -21 3 -31 6 -10
3 -7 -2 7 -10z"/>
<path d="M14795 13055 c0 -13 3 -21 8 -18 4 2 7 10 7 18 0 8 -3 16 -7 18 -5 3
-8 -5 -8 -18z"/>
<path d="M14710 13060 c0 -5 14 -10 31 -10 17 0 28 4 24 10 -3 6 -17 10 -31
10 -13 0 -24 -4 -24 -10z"/>
<path d="M15060 13060 c0 -5 -7 -10 -17 -10 -9 0 -14 -3 -10 -6 8 -8 47 5 47
17 0 5 -4 9 -10 9 -5 0 -10 -4 -10 -10z"/>
<path d="M14966 13029 c-11 -55 -7 -68 18 -75 14 -3 27 -13 29 -22 3 -10 5 -5
6 11 1 31 7 33 33 10 17 -15 18 -15 18 4 0 12 7 24 16 27 21 8 65 -4 83 -22
10 -10 16 -11 19 -3 5 14 32 14 32 0 0 -15 27 7 41 33 9 17 8 18 -10 9 -36
-20 -90 -13 -116 13 -23 23 -25 24 -35 7 -10 -20 -86 -55 -100 -46 -5 3 -7 12
-3 20 3 8 0 15 -6 15 -6 0 -11 4 -11 9 0 5 17 8 38 6 20 -1 26 0 12 2 -14 3
-32 11 -41 19 -15 13 -17 11 -23 -17z"/>
<path d="M15090 12940 c0 -5 5 -10 10 -10 6 0 10 5 10 10 0 6 -4 10 -10 10 -5
0 -10 -4 -10 -10z"/>
<path d="M15193 12904 c-6 -13 -7 -24 -3 -24 9 0 25 39 18 45 -2 2 -8 -7 -15
-21z"/>
<path d="M15128 12913 c7 -3 16 -2 19 1 4 3 -2 6 -13 5 -11 0 -14 -3 -6 -6z"/>
<path d="M14690 12850 c11 -21 50 -34 50 -16 0 6 -13 17 -30 23 -27 10 -29 10
-20 -7z"/>
<path d="M14661 12833 c-1 -12 -6 -25 -11 -28 -6 -4 -7 -11 -4 -17 4 -7 9 -6
14 3 6 9 12 10 22 2 16 -12 55 -27 45 -17 -3 4 -17 12 -29 18 -12 6 -25 22
-29 36 -6 23 -7 23 -8 3z"/>
<path d="M14770 12815 c-10 -13 -9 -15 9 -15 11 0 21 -5 21 -12 0 -6 3 -9 6
-5 3 3 -1 15 -9 27 -12 18 -16 19 -27 5z"/>
<path d="M15191 12774 c0 -11 3 -14 6 -6 3 7 2 16 -1 19 -3 4 -6 -2 -5 -13z"/>
<path d="M14758 12760 c-10 -9 -18 -27 -18 -39 0 -13 -8 -25 -22 -30 -27 -10
-9 -22 21 -14 18 5 21 11 16 31 -4 16 0 31 11 43 22 24 15 32 -8 9z"/>
<path d="M15453 13090 c-13 -5 -23 -11 -23 -14 0 -7 40 6 46 15 6 10 6 10 -23
-1z"/>
<path d="M15502 13059 c-7 -10 -23 -19 -37 -19 -14 0 -25 -5 -25 -11 0 -11 37
-3 57 13 7 6 13 4 15 -4 3 -9 9 -6 16 9 15 28 -9 40 -26 12z"/>
<path d="M15610 13054 c0 -5 -13 -15 -30 -21 -16 -6 -30 -16 -30 -22 0 -8 10
-6 29 4 32 16 47 33 37 42 -3 4 -6 2 -6 -3z"/>
<path d="M15771 13009 c-24 -32 -24 -32 -4 -48 12 -9 23 -23 27 -31 3 -8 4 -2
1 13 -3 17 -2 26 4 23 11 -7 21 17 21 50 0 33 -22 30 -49 -7z m37 -5 c-4 -20
-34 -41 -44 -31 -8 8 24 47 38 47 5 0 8 -7 6 -16z"/>
<path d="M15440 12964 c-7 -8 -19 -13 -27 -10 -9 4 -13 -3 -13 -21 l0 -27 32
30 c18 16 34 30 36 30 2 1 -1 5 -6 8 -5 3 -15 -1 -22 -10z"/>
<path d="M15711 12894 c-15 -34 -8 -41 9 -9 7 14 18 25 23 25 5 0 0 -16 -12
-36 -25 -42 -25 -45 -7 -38 8 3 17 1 20 -4 3 -6 15 -8 26 -5 11 3 17 9 14 14
-3 5 -9 7 -14 4 -4 -3 -14 3 -21 12 -12 15 -12 16 5 10 16 -6 17 -5 6 8 -8 9
-9 15 -2 15 6 0 16 -8 21 -17 6 -10 11 -14 11 -10 0 18 -34 57 -50 57 -9 0
-22 -12 -29 -26z"/>
<path d="M15672 12823 c2 -9 10 -19 18 -21 12 -4 13 -3 3 10 -7 8 -10 18 -6
21 3 4 1 7 -6 7 -7 0 -11 -8 -9 -17z"/>
<path d="M14397 13036 c-7 -18 18 -42 28 -26 3 5 1 10 -4 10 -6 0 -11 5 -11
10 0 6 7 10 15 10 8 0 15 -4 15 -10 0 -5 8 -10 18 -10 15 1 15 2 -2 15 -25 19
-52 19 -59 1z"/>
<path d="M14382 12948 c-14 -14 -16 -28 -3 -28 5 0 11 9 14 20 6 23 5 24 -11
8z"/>
<path d="M14447 12945 c3 -9 -3 -25 -13 -36 -17 -19 -17 -20 1 -13 13 5 16 4
11 -4 -4 -7 -2 -12 6 -12 8 -1 6 -6 -5 -15 -15 -11 -17 -17 -7 -32 10 -16 11
-16 6 0 -6 19 9 24 18 5 3 -7 3 -2 0 11 -5 20 -3 23 12 17 18 -6 18 -5 2 8
-10 7 -18 19 -18 26 0 7 7 10 18 5 14 -5 15 -4 5 6 -19 19 -16 28 6 22 11 -3
28 0 38 6 15 10 14 10 -9 5 -18 -4 -28 -2 -28 5 0 6 -11 11 -25 11 -18 0 -23
-4 -18 -15z"/>
<path d="M14410 12940 c-9 -6 -10 -10 -3 -10 6 0 15 5 18 10 8 12 4 12 -15 0z"/>
<path d="M14510 12862 c6 -13 14 -21 18 -18 3 4 -2 14 -12 24 -18 16 -18 16
-6 -6z"/>
<path d="M15342 12648 c-12 -12 1 -38 20 -38 7 0 6 5 -1 13 -8 10 -7 17 1 25
7 7 8 12 2 12 -5 0 -15 -5 -22 -12z"/>
<path d="M15100 12592 c0 -5 -11 -14 -25 -20 -14 -6 -25 -16 -25 -22 0 -15 33
-12 58 5 16 12 26 13 42 5 13 -7 20 -7 20 -1 0 6 -13 17 -30 26 -33 17 -40 18
-40 7z"/>
<path d="M15116 12515 c3 -8 19 -21 35 -29 25 -13 29 -13 29 0 0 8 -8 17 -17
20 -10 3 -26 10 -35 15 -13 7 -16 5 -12 -6z"/>
<path d="M14860 12111 c0 -31 -4 -50 -10 -46 -6 4 -7 -18 -3 -59 5 -54 3 -69
-15 -98 -12 -19 -21 -45 -20 -59 3 -51 -2 -89 -13 -89 -7 0 -10 12 -7 30 3 17
1 30 -3 30 -9 0 -19 -26 -19 -49 0 -21 -27 -79 -48 -104 -14 -16 -14 -17 1
-11 10 3 17 1 17 -5 0 -6 -22 -20 -50 -32 -27 -12 -50 -26 -50 -31 0 -7 4 -7
13 -1 6 6 26 11 44 11 30 1 31 -1 21 -24 -13 -28 -35 -32 -41 -6 -4 16 -5 16
-6 0 -1 -20 -31 -25 -31 -5 0 9 -3 8 -9 -2 -5 -7 -13 -11 -19 -7 -6 3 -13 2
-17 -4 -3 -5 0 -10 8 -10 27 0 51 -43 60 -107 0 -5 7 -14 14 -21 7 -8 11 -18
8 -23 -4 -5 0 -10 7 -10 61 -5 86 -8 108 -11 23 -3 25 0 25 39 1 27 8 53 22
71 15 21 17 29 7 29 -21 0 -37 -44 -35 -101 1 -32 -2 -37 -17 -31 -9 4 -37 10
-60 13 -40 4 -45 8 -62 47 -18 42 -24 67 -21 93 1 8 22 12 67 12 54 0 64 2 55
13 -16 20 10 52 38 44 11 -3 21 -1 21 4 0 8 -5 10 -37 13 -17 2 -42 37 -43 59
0 11 8 17 21 17 18 0 19 2 9 15 -10 12 -10 19 -2 27 9 9 12 7 12 -8 1 -51 41
78 60 196 7 45 7 45 9 -18 0 -35 6 -72 12 -84 15 -27 -6 -77 -38 -89 -12 -4
-23 -17 -23 -27 0 -10 -6 -24 -12 -31 -11 -10 -10 -11 5 -6 9 4 17 15 17 25 0
21 17 36 28 25 4 -3 -1 -20 -11 -37 -14 -25 -15 -29 -2 -18 12 10 18 10 30 0
12 -10 15 -10 15 4 0 9 -4 16 -10 16 -5 0 -10 9 -10 20 0 13 7 20 20 20 11 0
20 4 20 9 0 5 -9 7 -20 4 -16 -4 -19 -2 -14 11 3 9 11 16 16 16 19 0 -6 377
-26 397 -3 4 -6 -17 -6 -46z m-92 -531 c-13 -20 -38 -28 -38 -12 0 12 23 32
37 32 11 0 11 -4 1 -20z"/>
<path d="M15321 12114 c0 -11 3 -14 6 -6 3 7 2 16 -1 19 -3 4 -6 -2 -5 -13z"/>
<path d="M14832 12100 c0 -14 2 -19 5 -12 2 6 2 18 0 25 -3 6 -5 1 -5 -13z"/>
<path d="M15290 11987 c-11 -47 -10 -61 5 -113 10 -32 17 -84 17 -114 0 -38 3
-49 8 -35 5 11 9 50 9 87 1 61 12 90 29 73 4 -4 9 -42 10 -84 4 -71 2 -79 -15
-83 -16 -4 -19 -12 -15 -37 2 -17 8 -28 13 -26 4 3 13 -3 19 -12 10 -16 11
-16 4 2 -14 40 -16 65 -6 65 10 0 36 -58 33 -73 -1 -5 3 -6 9 -2 5 3 10 -3 10
-14 0 -12 -5 -19 -12 -16 -49 17 -139 9 -94 -8 8 -3 20 -15 26 -26 10 -20 8
-21 -30 -21 -30 0 -40 4 -40 16 0 8 -4 12 -10 9 -5 -3 -17 -2 -26 3 -14 8 -13
10 9 16 19 4 24 11 20 27 -4 15 -8 17 -14 8 -4 -7 -17 -14 -28 -16 -19 -2 -21
2 -19 40 0 23 6 45 11 48 6 4 6 15 2 25 -7 16 -10 13 -18 -18 -12 -43 -33 -53
-23 -10 17 68 16 77 -3 37 -14 -27 -17 -44 -10 -56 5 -10 9 -29 9 -43 0 -25
-3 -26 -54 -26 -58 0 -66 8 -66 69 0 24 -1 24 -14 5 -8 -10 -10 -20 -5 -22 15
-6 10 -49 -7 -56 -21 -8 -22 -8 -27 7 -2 6 -3 4 -2 -5 2 -9 -6 -25 -16 -34
-18 -16 -19 -16 -19 2 -1 18 -1 18 -11 2 -5 -10 -14 -18 -19 -18 -15 0 -12 22
7 42 9 10 11 18 5 18 -6 0 -19 -14 -29 -31 -12 -20 -24 -29 -35 -26 -9 3 -19
0 -21 -6 -2 -6 -11 -8 -21 -4 -10 4 -14 12 -10 18 4 8 3 9 -4 5 -23 -14 -12
-26 33 -37 43 -11 58 -30 34 -44 -6 -4 -8 -13 -5 -20 2 -7 2 -16 -2 -20 -8 -8
-9 -13 -11 -54 -1 -36 -24 -61 -57 -61 -21 0 -24 -3 -18 -27 9 -38 30 -61 30
-33 0 11 -4 20 -8 20 -20 0 -5 29 18 34 32 8 37 5 38 -33 1 -16 4 -27 9 -24 4
2 7 0 7 -4 0 -5 16 -32 35 -62 40 -61 40 -61 19 -61 -8 0 -13 -4 -9 -10 3 -5
12 -7 19 -4 8 3 47 -2 87 -10 40 -8 76 -13 80 -10 5 2 38 7 76 9 53 4 71 1 85
-12 18 -16 18 -16 12 0 -5 14 0 17 23 17 16 0 35 -6 42 -12 11 -10 13 -10 7 0
-4 6 -3 12 1 12 11 0 33 -21 33 -32 0 -13 -58 -9 -63 5 -4 10 -6 10 -6 0 -1
-10 -27 -13 -98 -13 -53 0 -94 -2 -91 -5 3 -3 47 -6 97 -6 53 0 91 -4 91 -10
0 -6 -53 -10 -137 -9 -280 2 -283 2 -276 -17 4 -11 8 -12 11 -5 6 20 42 14 42
-7 0 -17 -6 -19 -37 -18 -35 3 -38 6 -41 35 l-3 32 78 1 c43 1 68 4 56 6 -12
2 -24 12 -26 21 -4 15 -5 15 -6 0 -1 -20 -31 -25 -31 -5 0 9 -2 9 -8 0 -4 -7
-32 -10 -78 -8 -144 8 -205 21 -175 39 6 4 11 12 11 19 0 6 -6 2 -14 -8 -8
-11 -12 -24 -9 -29 4 -5 -6 -6 -23 -1 -16 5 -53 7 -81 6 -42 -2 -53 1 -53 13
0 9 6 16 13 16 6 0 4 5 -5 11 -11 6 -19 23 -19 42 -2 30 -2 29 -8 -8 -4 -27
-12 -41 -23 -43 -15 -3 -18 4 -18 34 0 35 -1 36 -14 18 -13 -17 -14 -15 -6 21
12 49 12 126 3 191 -7 43 -9 36 -14 -61 l-6 -110 0 138 c0 115 2 135 13 126 8
-6 15 -21 15 -33 1 -16 3 -13 9 9 5 18 8 23 9 11 0 -11 4 -16 9 -12 4 4 12 -9
18 -31 l11 -38 12 57 c7 31 19 59 27 62 7 3 14 13 13 23 0 11 -3 13 -6 6 -5
-14 -33 -18 -33 -5 0 5 9 17 20 27 20 18 28 41 11 31 -5 -4 -11 -3 -14 1 -2 5
-3 4 -2 -2 4 -17 -33 -77 -40 -66 -3 6 -1 19 4 29 6 11 7 22 4 26 -13 12 -10
46 4 46 7 0 18 12 23 26 14 35 11 55 -3 24 -6 -14 -20 -31 -30 -39 -12 -9 -17
-23 -16 -45 3 -32 -20 -66 -53 -78 -15 -6 -28 -57 -28 -114 0 -16 -7 -39 -15
-50 -18 -24 -19 -48 -1 -63 7 -6 16 -33 19 -59 11 -92 50 -142 110 -142 49 0
69 -12 63 -35 -4 -15 1 -32 13 -46 26 -32 98 -37 564 -38 313 -1 383 2 406 14
30 15 41 33 41 69 0 12 4 26 10 32 6 6 3 10 -10 10 -11 0 -20 -4 -20 -8 0 -4
-4 -8 -10 -8 -11 0 -14 29 -2 31 37 7 54 4 62 -10 5 -9 10 -11 10 -4 0 6 -6
18 -13 25 -8 7 -12 28 -11 46 1 17 -2 30 -7 27 -4 -3 -6 -12 -3 -20 3 -7 1
-22 -5 -32 -7 -12 -10 -13 -11 -4 0 11 -3 11 -15 1 -8 -7 -22 -9 -32 -6 -9 4
-20 1 -25 -6 -6 -10 -10 -10 -19 2 -8 11 -12 12 -16 3 -2 -7 -13 -13 -22 -13
-14 0 -17 6 -13 30 2 16 8 27 13 24 14 -8 11 10 -6 32 -14 18 -14 18 -15 -11
0 -16 -9 -40 -19 -52 -23 -28 -56 -31 -47 -5 6 16 5 16 -8 0 -10 -14 -27 -18
-77 -17 -35 0 -58 3 -50 6 8 3 27 21 43 39 17 19 35 31 42 27 6 -3 8 -3 4 2
-4 4 -2 17 4 29 14 24 17 36 25 93 7 53 21 48 18 -7 -1 -22 2 -40 7 -40 4 0 8
-6 8 -14 0 -7 7 -19 15 -26 19 -16 19 -1 -1 39 -9 18 -14 43 -11 57 2 13 0 24
-5 24 -5 0 -6 5 -3 10 3 6 0 10 -7 10 -10 0 -9 3 2 11 11 8 12 12 2 16 -6 2
-10 9 -7 14 4 5 0 6 -8 3 -11 -4 -19 6 -27 33 -7 21 -16 42 -21 47 -16 18 -9
26 21 26 17 0 30 -4 30 -10 0 -16 17 -12 24 6 3 8 1 25 -5 36 -15 27 -3 35 20
14 16 -15 18 -22 9 -42 -8 -18 -8 -28 -1 -35 30 -30 45 31 17 62 -16 17 -14
18 41 16 47 -2 60 -6 73 -24 13 -21 13 -23 -1 -23 -9 0 -21 8 -26 18 -9 15
-10 15 -11 -5 0 -16 9 -24 35 -33 19 -6 35 -15 35 -20 0 -4 10 -10 21 -13 18
-5 20 -11 15 -34 -13 -56 -11 -88 7 -101 20 -16 24 -98 5 -105 -10 -3 -8 -9 5
-24 11 -13 15 -29 12 -49 -9 -46 6 -59 44 -39 18 9 35 24 38 33 4 9 15 29 25
44 10 14 18 34 17 45 0 16 -1 16 -9 -2 -5 -13 -9 25 -9 103 -1 80 3 121 9 117
19 -12 10 6 -29 59 -23 31 -47 53 -58 53 -55 -1 -73 4 -73 19 0 9 -9 27 -20
41 -24 31 -27 58 -4 49 8 -3 22 1 30 9 14 13 12 15 -15 15 -39 0 -34 -10 -80
155 -7 23 -9 25 -10 9 -1 -12 9 -53 22 -93 23 -71 23 -82 -2 -58 -7 6 -4 -4 8
-23 11 -19 21 -43 21 -52 0 -10 9 -22 20 -28 21 -11 28 -40 9 -40 -6 0 -3 -7
5 -16 18 -17 20 -30 7 -38 -5 -3 -16 5 -25 19 -9 14 -13 25 -9 25 5 0 0 5 -10
11 -12 7 -16 17 -11 31 4 14 2 18 -5 14 -6 -4 -11 -14 -11 -22 0 -9 -7 -14
-17 -12 -25 5 -79 99 -87 150 -4 23 -16 58 -26 77 -11 20 -28 61 -38 91 l-19
55 -12 -38 c-20 -61 -33 -45 -25 33 3 39 4 70 2 70 -3 0 -11 -24 -18 -53z
m118 -214 c10 -45 8 -53 -17 -53 -11 0 -12 3 -4 11 7 7 8 23 2 47 -11 49 -11
58 0 47 6 -6 14 -29 19 -52z m22 -84 c0 -10 -6 -19 -14 -19 -19 0 -30 31 -14
41 17 10 28 2 28 -22z m27 -73 c-9 -26 -27 -15 -27 16 1 31 1 32 15 13 9 -10
14 -24 12 -29z m-85 -33 c10 -9 18 -20 18 -25 0 -14 -22 -9 -36 10 -25 33 -13
44 18 15z m-151 -20 c62 -32 113 -98 124 -163 28 -164 -129 -305 -290 -260
-171 48 -223 277 -87 391 78 65 164 76 253 32z m416 2 c8 -22 -6 -33 -17 -15
-13 20 -12 30 0 30 6 0 13 -7 17 -15z m70 -9 c3 -3 2 -9 -1 -14 -8 -14 -43 -3
-50 14 -4 11 1 13 20 10 15 -3 29 -7 31 -10z m-257 -31 c0 -8 -4 -15 -10 -15
-5 0 -10 7 -10 15 0 8 5 15 10 15 6 0 10 -7 10 -15z m232 -62 l1 -48 4 43 c2
23 8 40 14 37 5 -4 9 -75 8 -163 0 -123 -3 -152 -11 -132 -11 25 -11 25 -18
-10 -7 -41 -20 115 -20 243 0 83 19 109 22 30z m63 -118 c0 -77 -4 -127 -12
-140 -10 -16 -12 10 -12 140 0 130 2 156 12 140 8 -13 12 -63 12 -140z m-1325
-5 c0 -11 -4 -20 -9 -20 -14 0 -23 18 -16 30 10 17 25 11 25 -10z m1018 -233
c2 -10 -3 -17 -12 -17 -9 0 -16 2 -16 4 0 2 -3 12 -6 21 -5 13 -2 16 12 13 10
-2 20 -11 22 -21z m30 0 c5 -24 -15 -21 -21 4 -3 13 -1 19 6 16 7 -2 13 -11
15 -20z m92 7 c0 -8 -4 -13 -9 -10 -5 4 -12 0 -14 -6 -4 -10 -8 -10 -15 1 -8
11 -10 11 -15 0 -4 -12 -7 -11 -16 1 -17 24 -14 27 29 28 30 1 40 -2 40 -14z
m-830 -64 c0 -16 -4 -30 -10 -30 -5 0 -10 11 -10 24 0 19 -4 24 -20 21 -11 -2
-20 0 -20 6 0 5 14 9 30 9 27 0 30 -3 30 -30z m60 21 c0 -5 -11 -8 -25 -8 -14
0 -25 3 -25 8 0 5 11 9 25 9 14 0 25 -4 25 -9z m86 -23 c-1 -17 -7 -33 -14
-36 -16 -5 -27 25 -14 41 8 10 6 13 -8 13 -15 0 -18 -6 -13 -29 5 -23 3 -29
-8 -25 -8 2 -15 19 -17 36 -3 31 -2 32 36 32 38 0 40 -1 38 -32z m534 20 c0
-4 -16 -8 -35 -8 -19 0 -35 4 -35 10 0 5 16 9 35 8 19 -1 35 -5 35 -10z m30 2
c0 -5 -4 -10 -10 -10 -5 0 -10 5 -10 10 0 6 5 10 10 10 6 0 10 -4 10 -10z m30
0 c0 -5 -4 -10 -10 -10 -5 0 -10 5 -10 10 0 6 5 10 10 10 6 0 10 -4 10 -10z
m90 -9 c-8 -3 -15 -12 -15 -20 0 -8 -5 -16 -11 -18 -6 -2 -11 9 -11 25 0 25 3
28 26 24 17 -4 21 -7 11 -11z m-780 -32 c0 -10 -4 -19 -9 -19 -12 0 -23 29
-15 41 8 14 24 0 24 -22z m-92 9 c-6 -18 -28 -21 -28 -4 0 9 7 16 16 16 9 0
14 -5 12 -12z m372 -9 c0 -21 -29 -27 -31 -6 0 10 -2 10 -6 0 -6 -17 -43 -17
-43 0 0 21 8 25 46 25 27 0 34 -4 34 -19z m161 9 c0 -10 2 -10 6 0 3 7 25 12
59 12 47 0 54 -3 54 -19 0 -18 -8 -20 -112 -19 -72 0 -116 5 -120 12 -6 8 -8
7 -8 -1 0 -7 -7 -13 -15 -13 -8 0 -15 9 -15 20 0 18 7 20 75 20 53 0 75 -4 76
-12z m167 -5 c-2 -10 -10 -18 -18 -18 -8 0 -16 8 -18 18 -2 12 3 17 18 17 15
0 20 -5 18 -17z m42 -3 c0 -11 -7 -20 -15 -20 -8 0 -15 9 -15 20 0 11 7 20 15
20 8 0 15 -9 15 -20z m64 11 c7 -10 -22 -37 -30 -28 -9 8 3 37 15 37 5 0 12
-4 15 -9z"/>
<path d="M15035 11551 c-168 -78 -164 -314 7 -385 112 -47 249 24 278 142 40
170 -130 315 -285 243z m143 -21 c3 -9 7 -9 13 1 6 10 9 11 9 2 0 -7 7 -13 15
-13 7 0 18 -6 22 -14 4 -7 14 -15 20 -17 7 -2 -14 -25 -46 -51 -61 -49 -72
-49 -84 -3 -4 18 -5 18 -6 -2 -2 -33 -34 -25 -72 18 l-31 34 29 -40 c32 -45
35 -61 13 -75 -10 -7 -11 -10 -2 -10 20 0 14 -16 -10 -28 -15 -7 -18 -11 -8
-12 9 0 -3 -17 -30 -42 l-45 -41 48 38 c26 20 50 35 52 33 3 -2 -9 -23 -26
-46 -17 -23 -28 -42 -26 -42 3 0 19 19 36 42 29 40 71 61 71 36 0 -6 6 -4 13
6 12 16 16 13 45 -28 18 -25 38 -49 45 -53 13 -7 -3 16 -37 54 -30 35 -14 36
32 2 23 -17 42 -28 42 -25 0 2 -20 19 -45 37 -32 23 -42 35 -33 41 7 4 8 8 2
8 -5 0 -16 -6 -23 -12 -10 -11 -11 -10 -6 5 4 9 17 17 29 18 21 0 21 0 -1 9
-13 5 -23 14 -23 20 0 6 5 8 12 4 6 -4 8 -3 5 3 -4 6 14 27 40 47 35 27 49 33
59 25 8 -6 12 -15 9 -19 -3 -5 1 -10 7 -12 17 -6 16 -140 -1 -146 -6 -2 -11
-10 -11 -17 0 -34 -128 -113 -131 -81 0 7 -3 6 -6 -1 -7 -20 -43 -16 -44 5 -1
15 -2 15 -6 1 -11 -41 -119 29 -144 94 -16 41 -16 42 5 49 l21 6 -22 1 c-41 2
-32 64 21 140 25 36 42 46 69 42 4 0 7 3 7 8 0 22 121 22 128 1z m-33 -170 c0
-18 -6 -26 -23 -28 -24 -4 -38 18 -28 44 3 9 15 14 28 12 17 -2 23 -10 23 -28z
m-56 -34 c10 -12 9 -14 -6 -11 -10 2 -22 4 -28 4 -5 1 -3 6 5 11 19 12 15 12
29 -4z"/>
<path d="M15092 11520 c0 -14 2 -19 5 -12 2 6 2 18 0 25 -3 6 -5 1 -5 -13z"/>
<path d="M15132 11500 c0 -19 2 -27 5 -17 2 9 2 25 0 35 -3 9 -5 1 -5 -18z"/>
<path d="M15166 11495 c-9 -26 -7 -32 5 -12 6 10 9 21 6 23 -2 3 -7 -2 -11
-11z"/>
<path d="M15191 11465 c-36 -50 -45 -56 -36 -22 5 20 5 20 -6 4 -7 -12 -8 -22
-1 -29 8 -8 50 35 76 80 17 28 -3 9 -33 -33z"/>
<path d="M15061 11485 c0 -5 6 -21 14 -35 8 -14 14 -20 14 -15 0 6 -6 21 -14
35 -8 14 -14 21 -14 15z"/>
<path d="M15102 11455 c0 -16 2 -22 5 -12 2 9 2 23 0 30 -3 6 -5 -1 -5 -18z"/>
<path d="M14993 11452 c4 -6 22 -21 39 -34 17 -12 28 -17 25 -10 -4 6 -22 21
-39 34 -17 12 -28 17 -25 10z"/>
<path d="M15210 11405 c-14 -8 -20 -14 -15 -14 6 0 21 6 35 14 14 8 21 14 15
14 -5 0 -21 -6 -35 -14z"/>
<path d="M15010 11400 c8 -5 20 -10 25 -10 6 0 3 5 -5 10 -8 5 -19 10 -25 10
-5 0 -3 -5 5 -10z"/>
<path d="M15268 11383 c6 -2 18 -2 25 0 6 3 1 5 -13 5 -14 0 -19 -2 -12 -5z"/>
<path d="M14978 11373 c12 -2 30 -2 40 0 9 3 -1 5 -23 4 -22 0 -30 -2 -17 -4z"/>
<path d="M15203 11373 c9 -2 23 -2 30 0 6 3 -1 5 -18 5 -16 0 -22 -2 -12 -5z"/>
<path d="M14993 11343 c9 -2 25 -2 35 0 9 3 1 5 -18 5 -19 0 -27 -2 -17 -5z"/>
<path d="M15233 11343 c9 -2 25 -2 35 0 9 3 1 5 -18 5 -19 0 -27 -2 -17 -5z"/>
<path d="M15210 11320 c8 -5 20 -10 25 -10 6 0 3 5 -5 10 -8 5 -19 10 -25 10
-5 0 -3 -5 5 -10z"/>
<path d="M14990 11310 c-8 -5 -10 -10 -5 -10 6 0 17 5 25 10 8 5 11 10 5 10
-5 0 -17 -5 -25 -10z"/>
<path d="M15102 11250 c0 -19 2 -27 5 -17 2 9 2 25 0 35 -3 9 -5 1 -5 -18z"/>
<path d="M15151 11275 c0 -5 6 -21 14 -35 8 -14 14 -20 14 -15 0 6 -6 21 -14
35 -8 14 -14 21 -14 15z"/>
<path d="M15132 11240 c0 -19 2 -27 5 -17 2 9 2 25 0 35 -3 9 -5 1 -5 -18z"/>
<path d="M15066 11245 c-9 -26 -7 -32 5 -12 6 10 9 21 6 23 -2 3 -7 -2 -11
-11z"/>
<path d="M15102 11363 c2 -10 10 -18 18 -18 22 0 18 29 -3 33 -14 3 -18 -1
-15 -15z"/>
<path d="M15220 11880 c0 -11 5 -20 10 -20 6 0 10 9 10 20 0 11 -4 20 -10 20
-5 0 -10 -9 -10 -20z"/>
<path d="M15246 11748 c3 -79 2 -76 14 -58 5 8 7 33 3 55 -10 67 -19 69 -17 3z"/>
<path d="M15206 11765 c4 -8 8 -15 10 -15 2 0 4 7 4 15 0 8 -4 15 -10 15 -5 0
-7 -7 -4 -15z"/>
<path d="M14940 11735 c-10 -12 -10 -15 3 -15 8 0 17 7 21 15 3 8 2 15 -3 15
-5 0 -14 -7 -21 -15z"/>
<path d="M15500 11722 c0 -12 19 -26 26 -19 2 2 -2 10 -11 17 -9 8 -15 8 -15
2z"/>
<path d="M15648 11681 c2 -17 15 -33 34 -44 32 -18 32 -18 3 30 -26 42 -42 49
-37 14z"/>
<path d="M15288 11688 c-3 -7 4 -21 14 -30 22 -21 22 -19 4 16 -8 17 -15 22
-18 14z"/>
<path d="M14912 11670 c0 -14 2 -19 5 -12 2 6 2 18 0 25 -3 6 -5 1 -5 -13z"/>
<path d="M14952 11677 c-10 -12 -10 -16 4 -21 10 -4 14 -13 11 -26 -3 -11 -1
-23 4 -26 10 -6 10 29 0 65 -5 21 -8 22 -19 8z"/>
<path d="M14556 11655 c-3 -9 0 -15 9 -15 16 0 20 16 6 24 -5 3 -11 -1 -15 -9z"/>
<path d="M15620 11655 c0 -8 4 -15 10 -15 5 0 7 7 4 15 -4 8 -8 15 -10 15 -2
0 -4 -7 -4 -15z"/>
<path d="M14590 11613 c0 -13 -5 -23 -12 -23 -6 0 -9 -2 -7 -5 9 -8 48 7 53
22 4 8 2 11 -5 7 -6 -4 -15 0 -20 7 -6 10 -9 8 -9 -8z"/>
<path d="M15280 11604 c0 -5 7 -18 15 -28 8 -11 15 -16 15 -10 0 5 -7 18 -15
28 -8 11 -15 16 -15 10z"/>
<path d="M15477 11544 c-3 -3 -2 -17 4 -31 16 -42 11 -81 -13 -97 -12 -9 -18
-16 -12 -16 6 0 20 9 33 21 17 16 30 20 54 15 l32 -5 -30 16 c-16 10 -33 16
-36 15 -9 -2 -21 66 -14 78 7 11 -8 14 -18 4z"/>
<path d="M15384 11491 c0 -11 4 -17 8 -15 4 3 8 12 8 20 0 8 -4 14 -8 14 -4 0
-8 -9 -8 -19z"/>
<path d="M15425 11470 c-8 -13 3 -30 20 -30 8 0 13 9 12 20 -1 21 -21 27 -32
10z"/>
<path d="M15781 11375 l-1 -90 21 39 c18 34 19 40 5 60 -8 13 -16 36 -19 52
-2 16 -5 -11 -6 -61z m20 -28 c-8 -8 -11 -3 -11 19 1 25 2 27 11 11 8 -14 8
-22 0 -30z"/>
<path d="M14550 11421 c-6 -11 -6 -22 -1 -25 5 -3 11 5 13 19 6 30 2 32 -12 6z"/>
<path d="M14617 11433 c-2 -5 4 -26 14 -48 9 -22 18 -34 18 -27 1 7 -6 26 -14
41 -8 16 -11 31 -8 35 4 3 4 6 0 6 -3 0 -8 -3 -10 -7z"/>
<path d="M15552 11408 c-16 -16 -15 -48 1 -48 9 0 14 12 15 30 1 34 0 34 -16
18z"/>
<path d="M14472 11370 c0 -19 2 -27 5 -17 2 9 2 25 0 35 -3 9 -5 1 -5 -18z"/>
<path d="M14540 11340 c0 -11 2 -20 5 -20 2 0 9 9 15 20 9 16 8 20 -5 20 -8 0
-15 -9 -15 -20z"/>
<path d="M15522 11290 c-17 -36 -9 -50 26 -49 21 1 22 2 7 6 -31 8 -40 20 -26
37 7 9 11 20 9 26 -1 5 -9 -3 -16 -20z"/>
<path d="M14490 11296 c0 -9 5 -16 10 -16 6 0 10 4 10 9 0 6 -4 13 -10 16 -5
3 -10 -1 -10 -9z"/>
<path d="M14538 11284 c-3 -24 -1 -31 9 -27 15 6 15 9 4 38 -7 17 -9 16 -13
-11z"/>
<path d="M14611 11271 c-6 -10 -24 -24 -41 -29 -34 -12 -41 -45 -12 -61 15 -9
15 -12 3 -33 -13 -21 -13 -22 2 -10 9 8 21 11 27 7 5 -3 10 2 10 11 0 10 -3
15 -6 12 -3 -4 -15 3 -26 14 -14 15 -17 23 -9 31 6 6 11 8 11 3 0 -4 11 5 24
19 18 19 31 25 45 20 12 -3 21 -11 21 -16 0 -5 17 -9 38 -9 42 0 122 -34 122
-52 0 -6 3 -9 6 -6 10 11 -16 48 -34 48 -14 0 -15 2 -3 9 12 8 8 11 -15 16
-16 4 -39 11 -51 17 -16 8 -26 8 -37 -1 -10 -8 -16 -9 -21 -2 -3 6 -15 15 -25
21 -15 8 -21 6 -29 -9z"/>
<path d="M14471 11244 c0 -11 3 -14 6 -6 3 7 2 16 -1 19 -3 4 -6 -2 -5 -13z"/>
<path d="M15570 11219 c0 -5 5 -7 10 -4 6 3 10 8 10 11 0 2 -4 4 -10 4 -5 0
-10 -5 -10 -11z"/>
<path d="M15396 11193 c-6 -14 -5 -15 5 -6 7 7 10 15 7 18 -3 3 -9 -2 -12 -12z"/>
<path d="M14850 11172 c0 -11 -7 -25 -15 -32 -8 -7 -15 -18 -15 -24 0 -6 5 -3
11 7 5 9 16 17 22 17 15 0 20 37 6 45 -5 4 -9 -3 -9 -13z"/>
<path d="M14896 11177 c3 -8 1 -18 -5 -22 -17 -10 -13 -25 4 -19 17 7 20 40 5
49 -5 3 -7 0 -4 -8z"/>
<path d="M14644 11158 c4 -20 26 -21 26 -1 0 14 -2 15 -9 4 -6 -9 -10 -10 -14
-2 -4 8 -5 8 -3 -1z"/>
<path d="M14780 11163 c0 -6 -13 -10 -28 -9 -21 1 -28 -3 -28 -16 0 -12 4 -14
10 -8 6 6 18 10 27 10 19 0 35 17 25 27 -3 4 -6 2 -6 -4z"/>
<path d="M14800 11140 c-6 -11 -8 -20 -6 -20 3 0 10 9 16 20 6 11 8 20 6 20
-3 0 -10 -9 -16 -20z"/>
<path d="M12034 10969 c-115 -132 -215 -251 -222 -264 -9 -19 -12 -113 -10
-402 3 -338 5 -378 19 -381 9 -2 65 34 125 79 60 45 132 94 159 110 63 36 109
82 131 134 16 36 17 85 15 500 -1 253 -4 461 -5 463 -2 1 -97 -106 -212 -239z"/>
<path d="M11339 8936 c-80 -54 -125 -104 -138 -153 -13 -53 -9 -269 6 -284 17
-17 51 -5 110 38 28 21 65 46 82 55 l31 17 0 186 c0 142 -3 185 -13 185 -7 0
-42 -20 -78 -44z"/>
<path d="M10985 8628 c-44 -34 -83 -66 -87 -72 -10 -15 -10 -279 0 -274 41 18
165 93 168 102 3 7 3 78 2 158 l-3 146 -80 -60z"/>
<path d="M10728 8375 c-52 -35 -82 -102 -76 -171 3 -30 7 -57 11 -60 3 -3 30
7 59 23 l53 28 3 103 c1 56 -1 102 -5 102 -5 0 -25 -11 -45 -25z"/>
<path d="M10485 8135 c-25 -24 -30 -50 -19 -92 8 -28 24 -29 52 -3 22 21 29
69 16 104 -9 22 -21 20 -49 -9z"/>
<path d="M21602 10487 c-16 -18 -36 -121 -29 -141 5 -14 31 -16 169 -16 l163
1 -30 25 c-41 34 -206 131 -237 139 -15 4 -29 1 -36 -8z"/>
<path d="M15278 9175 c-3 -3 -34 -9 -69 -13 l-64 -7 -3 -92 c-3 -87 -1 -93 20
-107 29 -19 162 -11 184 11 10 10 14 39 14 94 0 66 -3 82 -20 99 -19 19 -50
26 -62 15z"/>
<path d="M13434 9157 c-11 -6 -14 -40 -14 -172 0 -91 4 -165 8 -165 10 0 342
335 342 345 0 10 -317 2 -336 -8z m169 -33 c69 -12 65 -33 -23 -107 -43 -37
-86 -67 -94 -67 -13 0 -16 14 -16 78 0 47 5 83 12 90 13 13 62 15 121 6z"/>
<path d="M14040 9156 c-5 -5 -10 -47 -10 -92 0 -109 5 -114 115 -114 110 0
119 8 109 98 -13 123 -7 117 -112 118 -50 0 -96 -4 -102 -10z"/>
<path d="M15724 9157 c-11 -6 -14 -41 -14 -173 l0 -166 170 163 c93 90 166
166 162 170 -10 10 -301 16 -318 6z m206 -47 c0 -11 -116 -141 -137 -153 -8
-5 -20 -4 -29 4 -12 10 -14 26 -8 78 3 36 8 69 11 74 6 11 163 9 163 -3z"/>
<path d="M16248 9148 c-16 -16 -19 -28 -14 -57 3 -20 6 -53 6 -73 0 -57 18
-68 114 -68 60 0 87 4 95 14 15 18 4 183 -13 193 -6 4 -46 8 -90 9 -66 2 -81
-1 -98 -18z"/>
<path d="M12931 9151 c-10 -7 -16 -35 -19 -93 -6 -108 0 -113 111 -109 45 1
87 7 94 13 9 7 13 40 13 104 l0 94 -92 0 c-51 0 -99 -4 -107 -9z"/>
<path d="M14567 9153 c-12 -12 -8 -311 4 -319 7 -4 80 62 178 160 l166 166
-171 0 c-94 0 -174 -3 -177 -7z m211 -42 c10 -6 -9 -29 -70 -85 l-83 -76 -8
71 c-10 92 -4 99 82 99 36 0 72 -4 79 -9z"/>
<path d="M16850 8988 l0 -173 172 170 c95 94 174 171 177 173 2 1 -75 2 -172
2 l-177 0 0 -172z m215 121 c10 -10 -143 -171 -155 -164 -4 3 -10 32 -14 66
-8 69 7 105 46 111 36 5 112 -3 123 -13z"/>
<path d="M14645 8693 c-32 -2 -65 -9 -72 -14 -18 -16 -15 -175 4 -194 10 -10
36 -15 81 -15 119 0 125 6 126 133 1 74 -15 99 -58 95 -12 -1 -48 -3 -81 -5z"/>
<path d="M13441 8677 c-6 -8 -14 -46 -17 -85 -6 -58 -4 -76 10 -97 15 -23 22
-25 101 -25 75 0 85 2 99 22 26 37 15 170 -16 189 -22 14 -164 11 -177 -4z"/>
<path d="M14034 8677 c-2 -7 -3 -84 -2 -170 l3 -157 170 170 170 170 -168 0
c-128 0 -169 -3 -173 -13z m206 -46 c0 -21 -130 -161 -149 -161 -12 0 -16 135
-5 164 5 13 22 16 80 16 66 0 74 -2 74 -19z"/>
<path d="M15151 8676 c-8 -9 -11 -63 -9 -170 l3 -157 168 161 c92 89 165 166
161 171 -3 5 -74 9 -158 9 -119 0 -156 -3 -165 -14z m207 -46 c3 -18 -124
-160 -144 -160 -19 0 -21 166 -1 174 6 2 41 4 77 3 49 -2 66 -6 68 -17z"/>
<path d="M15730 8680 c-11 -7 -15 -30 -15 -95 0 -111 7 -118 118 -113 53 2 81
8 86 17 17 28 23 139 9 168 -13 27 -16 28 -98 31 -47 1 -92 -2 -100 -8z"/>
<path d="M16880 8683 c-26 -10 -30 -25 -30 -110 0 -99 4 -103 112 -103 102 0
107 6 109 108 2 107 -3 112 -100 111 -42 0 -83 -3 -91 -6z"/>
<path d="M16231 8543 c2 -223 -13 -221 179 -28 l165 165 -173 0 -172 0 1 -137z
m223 90 c5 -13 -13 -36 -70 -90 -43 -40 -81 -73 -85 -73 -25 0 -20 156 4 172
7 4 42 8 78 8 54 0 68 -3 73 -17z"/>
<path d="M14112 8230 c-40 -3 -66 -10 -72 -20 -14 -22 -12 -174 2 -188 14 -14
136 -16 171 -3 31 12 38 32 40 114 3 96 -14 107 -141 97z"/>
<path d="M15225 8231 c-73 -7 -85 -24 -85 -123 0 -89 10 -98 104 -98 96 0 108
10 116 91 7 68 -2 117 -22 131 -14 8 -18 8 -113 -1z"/>
<path d="M14564 8217 c-2 -7 -3 -83 -2 -169 l3 -156 168 161 c92 89 168 165
167 170 0 4 -74 7 -165 7 -126 0 -167 -3 -171 -13z m206 -41 c15 -20 9 -29
-80 -111 l-75 -70 -3 83 c-2 53 1 89 9 98 16 20 132 19 149 0z"/>
<path d="M15704 8217 c-2 -7 -3 -75 -2 -150 l3 -138 35 31 c32 27 33 31 18 40
-23 14 -24 95 -3 145 21 52 62 63 148 39 26 -8 21 -22 -26 -78 -76 -92 -73
-92 28 -2 55 49 109 97 120 107 19 19 16 19 -148 19 -128 0 -169 -3 -173 -13z"/>
<path d="M14669 7751 c-82 -9 -89 -18 -89 -115 0 -50 5 -87 12 -94 7 -7 43
-12 90 -12 107 0 118 12 118 119 0 103 -15 115 -131 102z"/>
<path d="M15152 7738 c-8 -8 -12 -63 -12 -182 l0 -171 166 167 c119 118 165
171 161 182 -5 14 -28 16 -155 16 -102 0 -152 -4 -160 -12z m166 -46 l44 -7
-30 -40 c-16 -22 -52 -60 -80 -84 l-52 -43 0 85 c0 103 5 106 118 89z"/>
</g>
</svg>
